<?xml version="1.0" encoding="UTF-8" standalone="no"?>
<!DOCTYPE svg PUBLIC "-//W3C//DTD SVG 1.1//EN"
 "http://www.w3.org/Graphics/SVG/1.1/DTD/svg11.dtd">
<!-- Generated by graphviz version 2.43.0 (0)
 -->
<!-- Title: snakemake_dag Pages: 1 -->
<svg width="1674pt" height="908pt"
 viewBox="0.00 0.00 1673.81 908.00" xmlns="http://www.w3.org/2000/svg" xmlns:xlink="http://www.w3.org/1999/xlink">
<g id="graph0" class="graph" transform="scale(1 1) rotate(0) translate(4 904)">
<title>snakemake_dag</title>
<polygon fill="white" stroke="transparent" points="-4,4 -4,-904 1669.81,-904 1669.81,4 -4,4"/>
<!-- 0 -->
<g id="node1" class="node">
<title>0</title>
<path fill="none" stroke="#70d856" stroke-width="2" stroke-dasharray="5,2" d="M620,-36C620,-36 590,-36 590,-36 584,-36 578,-30 578,-24 578,-24 578,-12 578,-12 578,-6 584,0 590,0 590,0 620,0 620,0 626,0 632,-6 632,-12 632,-12 632,-24 632,-24 632,-30 626,-36 620,-36"/>
<text text-anchor="middle" x="605" y="-15.5" font-family="sans" font-size="10.00">all</text>
</g>
<!-- 1 -->
<g id="node2" class="node">
<title>1</title>
<path fill="none" stroke="#d88d56" stroke-width="2" stroke-dasharray="5,2" d="M933,-900C933,-900 877,-900 877,-900 871,-900 865,-894 865,-888 865,-888 865,-876 865,-876 865,-870 871,-864 877,-864 877,-864 933,-864 933,-864 939,-864 945,-870 945,-876 945,-876 945,-888 945,-888 945,-894 939,-900 933,-900"/>
<text text-anchor="middle" x="905" y="-879.5" font-family="sans" font-size="10.00">cp_reference</text>
</g>
<!-- 1&#45;&gt;0 -->
<g id="edge1" class="edge">
<title>1&#45;&gt;0</title>
<path fill="none" stroke="grey" stroke-width="2" d="M945.4,-880C1062.89,-876.69 1402.66,-864.16 1507,-828 1575.25,-804.34 1643,-811.24 1643,-739 1643,-739 1643,-739 1643,-161 1643,-131.92 1753.53,-147.62 1481,-72 1319.51,-27.19 788.66,-20.26 642.53,-19.19"/>
<polygon fill="grey" stroke="grey" stroke-width="2" points="642.31,-15.69 632.29,-19.12 642.27,-22.69 642.31,-15.69"/>
</g>
<!-- 5 -->
<g id="node6" class="node">
<title>5</title>
<path fill="none" stroke="#8fd856" stroke-width="2" stroke-dasharray="5,2" d="M761.5,-396C761.5,-396 674.5,-396 674.5,-396 668.5,-396 662.5,-390 662.5,-384 662.5,-384 662.5,-372 662.5,-372 662.5,-366 668.5,-360 674.5,-360 674.5,-360 761.5,-360 761.5,-360 767.5,-360 773.5,-366 773.5,-372 773.5,-372 773.5,-384 773.5,-384 773.5,-390 767.5,-396 761.5,-396"/>
<text text-anchor="middle" x="718" y="-375.5" font-family="sans" font-size="10.00">samtools_view_md</text>
</g>
<!-- 1&#45;&gt;5 -->
<g id="edge12" class="edge">
<title>1&#45;&gt;5</title>
<path fill="none" stroke="grey" stroke-width="2" d="M864.67,-870.21C809.43,-852.69 717,-812.42 717,-739 717,-739 717,-739 717,-521 717,-481 717.4,-434.65 717.7,-406.08"/>
<polygon fill="grey" stroke="grey" stroke-width="2" points="721.2,-406.09 717.8,-396.05 714.2,-406.01 721.2,-406.09"/>
</g>
<!-- 6 -->
<g id="node7" class="node">
<title>6</title>
<path fill="none" stroke="#8fd856" stroke-width="2" stroke-dasharray="5,2" d="M1452.5,-396C1452.5,-396 1365.5,-396 1365.5,-396 1359.5,-396 1353.5,-390 1353.5,-384 1353.5,-384 1353.5,-372 1353.5,-372 1353.5,-366 1359.5,-360 1365.5,-360 1365.5,-360 1452.5,-360 1452.5,-360 1458.5,-360 1464.5,-366 1464.5,-372 1464.5,-372 1464.5,-384 1464.5,-384 1464.5,-390 1458.5,-396 1452.5,-396"/>
<text text-anchor="middle" x="1409" y="-375.5" font-family="sans" font-size="10.00">samtools_view_md</text>
</g>
<!-- 1&#45;&gt;6 -->
<g id="edge14" class="edge">
<title>1&#45;&gt;6</title>
<path fill="none" stroke="grey" stroke-width="2" d="M945.18,-878.93C1034.97,-873.79 1249.08,-858.63 1314,-828 1366.33,-803.31 1409,-796.86 1409,-739 1409,-739 1409,-739 1409,-521 1409,-481 1409,-434.65 1409,-406.08"/>
<polygon fill="grey" stroke="grey" stroke-width="2" points="1412.5,-406.05 1409,-396.05 1405.5,-406.05 1412.5,-406.05"/>
</g>
<!-- 7 -->
<g id="node8" class="node">
<title>7</title>
<path fill="none" stroke="#8fd856" stroke-width="2" stroke-dasharray="5,2" d="M343.5,-396C343.5,-396 256.5,-396 256.5,-396 250.5,-396 244.5,-390 244.5,-384 244.5,-384 244.5,-372 244.5,-372 244.5,-366 250.5,-360 256.5,-360 256.5,-360 343.5,-360 343.5,-360 349.5,-360 355.5,-366 355.5,-372 355.5,-372 355.5,-384 355.5,-384 355.5,-390 349.5,-396 343.5,-396"/>
<text text-anchor="middle" x="300" y="-375.5" font-family="sans" font-size="10.00">samtools_view_md</text>
</g>
<!-- 1&#45;&gt;7 -->
<g id="edge16" class="edge">
<title>1&#45;&gt;7</title>
<path fill="none" stroke="grey" stroke-width="2" d="M864.74,-881.18C719.21,-880.78 229,-869.72 229,-739 229,-739 229,-739 229,-521 229,-476.48 257.26,-431.61 278.13,-404.56"/>
<polygon fill="grey" stroke="grey" stroke-width="2" points="281.11,-406.43 284.59,-396.42 275.63,-402.07 281.11,-406.43"/>
</g>
<!-- 11 -->
<g id="node12" class="node">
<title>11</title>
<path fill="none" stroke="#c6d856" stroke-width="2" stroke-dasharray="5,2" d="M865.5,-468C865.5,-468 770.5,-468 770.5,-468 764.5,-468 758.5,-462 758.5,-456 758.5,-456 758.5,-444 758.5,-444 758.5,-438 764.5,-432 770.5,-432 770.5,-432 865.5,-432 865.5,-432 871.5,-432 877.5,-438 877.5,-444 877.5,-444 877.5,-456 877.5,-456 877.5,-462 871.5,-468 865.5,-468"/>
<text text-anchor="middle" x="818" y="-447.5" font-family="sans" font-size="10.00">gatk_markduplicates</text>
</g>
<!-- 1&#45;&gt;11 -->
<g id="edge32" class="edge">
<title>1&#45;&gt;11</title>
<path fill="none" stroke="grey" stroke-width="2" d="M905,-863.95C905,-837.29 905,-784.11 905,-739 905,-739 905,-739 905,-593 905,-552.55 907.47,-538.28 886,-504 878.66,-492.27 867.75,-482.11 856.81,-473.9"/>
<polygon fill="grey" stroke="grey" stroke-width="2" points="858.68,-470.94 848.5,-468.01 854.64,-476.65 858.68,-470.94"/>
</g>
<!-- 12 -->
<g id="node13" class="node">
<title>12</title>
<path fill="none" stroke="#c6d856" stroke-width="2" stroke-dasharray="5,2" d="M1368.5,-468C1368.5,-468 1273.5,-468 1273.5,-468 1267.5,-468 1261.5,-462 1261.5,-456 1261.5,-456 1261.5,-444 1261.5,-444 1261.5,-438 1267.5,-432 1273.5,-432 1273.5,-432 1368.5,-432 1368.5,-432 1374.5,-432 1380.5,-438 1380.5,-444 1380.5,-444 1380.5,-456 1380.5,-456 1380.5,-462 1374.5,-468 1368.5,-468"/>
<text text-anchor="middle" x="1321" y="-447.5" font-family="sans" font-size="10.00">gatk_markduplicates</text>
</g>
<!-- 1&#45;&gt;12 -->
<g id="edge35" class="edge">
<title>1&#45;&gt;12</title>
<path fill="none" stroke="grey" stroke-width="2" d="M945.06,-878.19C1026.85,-871.97 1210.01,-855.36 1266,-828 1317.4,-802.88 1359,-796.21 1359,-739 1359,-739 1359,-739 1359,-593 1359,-551.63 1343.77,-505.72 1332.59,-477.61"/>
<polygon fill="grey" stroke="grey" stroke-width="2" points="1335.72,-476.02 1328.69,-468.09 1329.24,-478.67 1335.72,-476.02"/>
</g>
<!-- 13 -->
<g id="node14" class="node">
<title>13</title>
<path fill="none" stroke="#c6d856" stroke-width="2" stroke-dasharray="5,2" d="M377.5,-468C377.5,-468 282.5,-468 282.5,-468 276.5,-468 270.5,-462 270.5,-456 270.5,-456 270.5,-444 270.5,-444 270.5,-438 276.5,-432 282.5,-432 282.5,-432 377.5,-432 377.5,-432 383.5,-432 389.5,-438 389.5,-444 389.5,-444 389.5,-456 389.5,-456 389.5,-462 383.5,-468 377.5,-468"/>
<text text-anchor="middle" x="330" y="-447.5" font-family="sans" font-size="10.00">gatk_markduplicates</text>
</g>
<!-- 1&#45;&gt;13 -->
<g id="edge38" class="edge">
<title>1&#45;&gt;13</title>
<path fill="none" stroke="grey" stroke-width="2" d="M864.7,-880.12C730.17,-876.12 305,-854.34 305,-739 305,-739 305,-739 305,-593 305,-552.6 314.94,-506.71 322.28,-478.3"/>
<polygon fill="grey" stroke="grey" stroke-width="2" points="325.75,-478.88 324.94,-468.32 318.98,-477.08 325.75,-478.88"/>
</g>
<!-- 22 -->
<g id="node23" class="node">
<title>22</title>
<path fill="none" stroke="#56d8c9" stroke-width="2" stroke-dasharray="5,2" d="M814.5,-252C814.5,-252 773.5,-252 773.5,-252 767.5,-252 761.5,-246 761.5,-240 761.5,-240 761.5,-228 761.5,-228 761.5,-222 767.5,-216 773.5,-216 773.5,-216 814.5,-216 814.5,-216 820.5,-216 826.5,-222 826.5,-228 826.5,-228 826.5,-240 826.5,-240 826.5,-246 820.5,-252 814.5,-252"/>
<text text-anchor="middle" x="794" y="-231.5" font-family="sans" font-size="10.00">mosdepth</text>
</g>
<!-- 1&#45;&gt;22 -->
<g id="edge45" class="edge">
<title>1&#45;&gt;22</title>
<path fill="none" stroke="grey" stroke-width="2" d="M945.15,-868.21C967.04,-859.62 993.38,-846.47 1012,-828 1043.47,-796.79 1057,-783.32 1057,-739 1057,-739 1057,-739 1057,-593 1057,-523.15 1030.21,-337.58 981,-288 935.74,-242.4 902.39,-270.95 841,-252 839.55,-251.55 838.08,-251.09 836.59,-250.61"/>
<polygon fill="grey" stroke="grey" stroke-width="2" points="837.33,-247.16 826.74,-247.29 835.1,-253.8 837.33,-247.16"/>
</g>
<!-- 23 -->
<g id="node24" class="node">
<title>23</title>
<path fill="none" stroke="#56d8c9" stroke-width="2" stroke-dasharray="5,2" d="M1168.5,-252C1168.5,-252 1127.5,-252 1127.5,-252 1121.5,-252 1115.5,-246 1115.5,-240 1115.5,-240 1115.5,-228 1115.5,-228 1115.5,-222 1121.5,-216 1127.5,-216 1127.5,-216 1168.5,-216 1168.5,-216 1174.5,-216 1180.5,-222 1180.5,-228 1180.5,-228 1180.5,-240 1180.5,-240 1180.5,-246 1174.5,-252 1168.5,-252"/>
<text text-anchor="middle" x="1148" y="-231.5" font-family="sans" font-size="10.00">mosdepth</text>
</g>
<!-- 1&#45;&gt;23 -->
<g id="edge49" class="edge">
<title>1&#45;&gt;23</title>
<path fill="none" stroke="grey" stroke-width="2" d="M945.19,-872.68C974.34,-865.01 1013.35,-851.22 1041,-828 1076.43,-798.25 1095,-785.27 1095,-739 1095,-739 1095,-739 1095,-665 1095,-568.4 1133,-547.6 1133,-451 1133,-451 1133,-451 1133,-377 1133,-336.99 1138.96,-291 1143.37,-262.46"/>
<polygon fill="grey" stroke="grey" stroke-width="2" points="1146.85,-262.85 1144.96,-252.43 1139.94,-261.75 1146.85,-262.85"/>
</g>
<!-- 24 -->
<g id="node25" class="node">
<title>24</title>
<path fill="none" stroke="#56d8c9" stroke-width="2" stroke-dasharray="5,2" d="M692.5,-252C692.5,-252 651.5,-252 651.5,-252 645.5,-252 639.5,-246 639.5,-240 639.5,-240 639.5,-228 639.5,-228 639.5,-222 645.5,-216 651.5,-216 651.5,-216 692.5,-216 692.5,-216 698.5,-216 704.5,-222 704.5,-228 704.5,-228 704.5,-240 704.5,-240 704.5,-246 698.5,-252 692.5,-252"/>
<text text-anchor="middle" x="672" y="-231.5" font-family="sans" font-size="10.00">mosdepth</text>
</g>
<!-- 1&#45;&gt;24 -->
<g id="edge53" class="edge">
<title>1&#45;&gt;24</title>
<path fill="none" stroke="grey" stroke-width="2" d="M864.96,-879.52C825.7,-875.88 766.83,-864.23 732,-828 699.8,-794.51 739,-957.58 654,-396 646.79,-348.34 632.4,-334.79 644,-288 646.29,-278.75 650.53,-269.34 655.02,-261.07"/>
<polygon fill="grey" stroke="grey" stroke-width="2" points="658.13,-262.68 660.11,-252.28 652.07,-259.17 658.13,-262.68"/>
</g>
<!-- 31 -->
<g id="node32" class="node">
<title>31</title>
<path fill="none" stroke="#59d856" stroke-width="2" stroke-dasharray="5,2" d="M375.5,-252C375.5,-252 322.5,-252 322.5,-252 316.5,-252 310.5,-246 310.5,-240 310.5,-240 310.5,-228 310.5,-228 310.5,-222 316.5,-216 322.5,-216 322.5,-216 375.5,-216 375.5,-216 381.5,-216 387.5,-222 387.5,-228 387.5,-228 387.5,-240 387.5,-240 387.5,-246 381.5,-252 375.5,-252"/>
<text text-anchor="middle" x="349" y="-237" font-family="sans" font-size="10.00">strelka2</text>
<text text-anchor="middle" x="349" y="-226" font-family="sans" font-size="10.00">tumor: leaf1</text>
</g>
<!-- 1&#45;&gt;31 -->
<g id="edge63" class="edge">
<title>1&#45;&gt;31</title>
<path fill="none" stroke="grey" stroke-width="2" d="M864.93,-881.11C706.36,-881.19 128.19,-878.03 65,-828 32.59,-802.34 38,-780.34 38,-739 38,-739 38,-739 38,-449 38,-342.67 155.57,-385.94 242,-324 270.56,-303.53 301.2,-277.6 322.34,-259.01"/>
<polygon fill="grey" stroke="grey" stroke-width="2" points="324.79,-261.53 329.96,-252.28 320.15,-256.28 324.79,-261.53"/>
</g>
<!-- 32 -->
<g id="node33" class="node">
<title>32</title>
<path fill="none" stroke="#59d856" stroke-width="2" stroke-dasharray="5,2" d="M1431.5,-252C1431.5,-252 1378.5,-252 1378.5,-252 1372.5,-252 1366.5,-246 1366.5,-240 1366.5,-240 1366.5,-228 1366.5,-228 1366.5,-222 1372.5,-216 1378.5,-216 1378.5,-216 1431.5,-216 1431.5,-216 1437.5,-216 1443.5,-222 1443.5,-228 1443.5,-228 1443.5,-240 1443.5,-240 1443.5,-246 1437.5,-252 1431.5,-252"/>
<text text-anchor="middle" x="1405" y="-237" font-family="sans" font-size="10.00">strelka2</text>
<text text-anchor="middle" x="1405" y="-226" font-family="sans" font-size="10.00">tumor: leaf2</text>
</g>
<!-- 1&#45;&gt;32 -->
<g id="edge68" class="edge">
<title>1&#45;&gt;32</title>
<path fill="none" stroke="grey" stroke-width="2" d="M945.41,-881C1089.14,-879.95 1567,-866.83 1567,-739 1567,-739 1567,-739 1567,-377 1567,-333.63 1557.86,-318.47 1527,-288 1506.76,-268.02 1477.76,-254.99 1453.12,-246.86"/>
<polygon fill="grey" stroke="grey" stroke-width="2" points="1454.15,-243.52 1443.56,-243.88 1452.06,-250.2 1454.15,-243.52"/>
</g>
<!-- 33 -->
<g id="node34" class="node">
<title>33</title>
<path fill="none" stroke="#d87556" stroke-width="2" stroke-dasharray="5,2" d="M990.5,-828C990.5,-828 945.5,-828 945.5,-828 939.5,-828 933.5,-822 933.5,-816 933.5,-816 933.5,-804 933.5,-804 933.5,-798 939.5,-792 945.5,-792 945.5,-792 990.5,-792 990.5,-792 996.5,-792 1002.5,-798 1002.5,-804 1002.5,-804 1002.5,-816 1002.5,-816 1002.5,-822 996.5,-828 990.5,-828"/>
<text text-anchor="middle" x="968" y="-807.5" font-family="sans" font-size="10.00">bwa_index</text>
</g>
<!-- 1&#45;&gt;33 -->
<g id="edge73" class="edge">
<title>1&#45;&gt;33</title>
<path fill="none" stroke="grey" stroke-width="2" d="M920.57,-863.7C928.2,-855.22 937.52,-844.86 945.88,-835.58"/>
<polygon fill="grey" stroke="grey" stroke-width="2" points="948.52,-837.88 952.61,-828.1 943.31,-833.2 948.52,-837.88"/>
</g>
<!-- 37 -->
<g id="node38" class="node">
<title>37</title>
<path fill="none" stroke="#56d8a9" stroke-width="2" stroke-dasharray="5,2" d="M843,-684C843,-684 777,-684 777,-684 771,-684 765,-678 765,-672 765,-672 765,-660 765,-660 765,-654 771,-648 777,-648 777,-648 843,-648 843,-648 849,-648 855,-654 855,-660 855,-660 855,-672 855,-672 855,-678 849,-684 843,-684"/>
<text text-anchor="middle" x="810" y="-663.5" font-family="sans" font-size="10.00">samtools_view</text>
</g>
<!-- 1&#45;&gt;37 -->
<g id="edge78" class="edge">
<title>1&#45;&gt;37</title>
<path fill="none" stroke="grey" stroke-width="2" d="M883.45,-863.87C857.86,-842.01 816.59,-801.54 800,-756 792.75,-736.09 796.05,-712.16 800.72,-694.13"/>
<polygon fill="grey" stroke="grey" stroke-width="2" points="804.16,-694.85 803.57,-684.27 797.43,-692.91 804.16,-694.85"/>
</g>
<!-- 38 -->
<g id="node39" class="node">
<title>38</title>
<path fill="none" stroke="#56d8a9" stroke-width="2" stroke-dasharray="5,2" d="M1299,-684C1299,-684 1233,-684 1233,-684 1227,-684 1221,-678 1221,-672 1221,-672 1221,-660 1221,-660 1221,-654 1227,-648 1233,-648 1233,-648 1299,-648 1299,-648 1305,-648 1311,-654 1311,-660 1311,-660 1311,-672 1311,-672 1311,-678 1305,-684 1299,-684"/>
<text text-anchor="middle" x="1266" y="-663.5" font-family="sans" font-size="10.00">samtools_view</text>
</g>
<!-- 1&#45;&gt;38 -->
<g id="edge80" class="edge">
<title>1&#45;&gt;38</title>
<path fill="none" stroke="grey" stroke-width="2" d="M945.11,-878.92C1022.66,-874.2 1189.65,-860.48 1236,-828 1277.92,-798.63 1280.77,-770.96 1276,-720 1275.2,-711.48 1273.7,-702.28 1272.1,-693.99"/>
<polygon fill="grey" stroke="grey" stroke-width="2" points="1275.5,-693.16 1270.06,-684.07 1268.64,-694.57 1275.5,-693.16"/>
</g>
<!-- 39 -->
<g id="node40" class="node">
<title>39</title>
<path fill="none" stroke="#56d8a9" stroke-width="2" stroke-dasharray="5,2" d="M470,-684C470,-684 404,-684 404,-684 398,-684 392,-678 392,-672 392,-672 392,-660 392,-660 392,-654 398,-648 404,-648 404,-648 470,-648 470,-648 476,-648 482,-654 482,-660 482,-660 482,-672 482,-672 482,-678 476,-684 470,-684"/>
<text text-anchor="middle" x="437" y="-663.5" font-family="sans" font-size="10.00">samtools_view</text>
</g>
<!-- 1&#45;&gt;39 -->
<g id="edge82" class="edge">
<title>1&#45;&gt;39</title>
<path fill="none" stroke="grey" stroke-width="2" d="M864.84,-878.95C761.01,-873.28 489.75,-855.92 461,-828 425.36,-793.38 427.35,-730.38 432.1,-694.3"/>
<polygon fill="grey" stroke="grey" stroke-width="2" points="435.62,-694.44 433.62,-684.03 428.69,-693.41 435.62,-694.44"/>
</g>
<!-- 40 -->
<g id="node41" class="node">
<title>40</title>
<path fill="none" stroke="#5692d8" stroke-width="2" stroke-dasharray="5,2" d="M865,-756C865,-756 821,-756 821,-756 815,-756 809,-750 809,-744 809,-744 809,-732 809,-732 809,-726 815,-720 821,-720 821,-720 865,-720 865,-720 871,-720 877,-726 877,-732 877,-732 877,-744 877,-744 877,-750 871,-756 865,-756"/>
<text text-anchor="middle" x="843" y="-735.5" font-family="sans" font-size="10.00">bwa_mem</text>
</g>
<!-- 1&#45;&gt;40 -->
<g id="edge83" class="edge">
<title>1&#45;&gt;40</title>
<path fill="none" stroke="grey" stroke-width="2" d="M897.52,-863.87C886.86,-839.46 867.2,-794.43 854.63,-765.64"/>
<polygon fill="grey" stroke="grey" stroke-width="2" points="857.71,-763.95 850.51,-756.19 851.3,-766.75 857.71,-763.95"/>
</g>
<!-- 41 -->
<g id="node42" class="node">
<title>41</title>
<path fill="none" stroke="#5692d8" stroke-width="2" stroke-dasharray="5,2" d="M1255,-756C1255,-756 1211,-756 1211,-756 1205,-756 1199,-750 1199,-744 1199,-744 1199,-732 1199,-732 1199,-726 1205,-720 1211,-720 1211,-720 1255,-720 1255,-720 1261,-720 1267,-726 1267,-732 1267,-732 1267,-744 1267,-744 1267,-750 1261,-756 1255,-756"/>
<text text-anchor="middle" x="1233" y="-735.5" font-family="sans" font-size="10.00">bwa_mem</text>
</g>
<!-- 1&#45;&gt;41 -->
<g id="edge86" class="edge">
<title>1&#45;&gt;41</title>
<path fill="none" stroke="grey" stroke-width="2" d="M945.05,-879.56C1019.73,-876.03 1176.12,-864.38 1214,-828 1230.42,-812.23 1234.38,-786.01 1234.7,-766.11"/>
<polygon fill="grey" stroke="grey" stroke-width="2" points="1238.19,-766.04 1234.57,-756.08 1231.2,-766.13 1238.19,-766.04"/>
</g>
<!-- 42 -->
<g id="node43" class="node">
<title>42</title>
<path fill="none" stroke="#5692d8" stroke-width="2" stroke-dasharray="5,2" d="M594,-756C594,-756 550,-756 550,-756 544,-756 538,-750 538,-744 538,-744 538,-732 538,-732 538,-726 544,-720 550,-720 550,-720 594,-720 594,-720 600,-720 606,-726 606,-732 606,-732 606,-744 606,-744 606,-750 600,-756 594,-756"/>
<text text-anchor="middle" x="572" y="-735.5" font-family="sans" font-size="10.00">bwa_mem</text>
</g>
<!-- 1&#45;&gt;42 -->
<g id="edge89" class="edge">
<title>1&#45;&gt;42</title>
<path fill="none" stroke="grey" stroke-width="2" d="M864.82,-877.79C795.82,-871.6 658.48,-856.06 620,-828 599.25,-812.87 586.54,-785.97 579.46,-765.69"/>
<polygon fill="grey" stroke="grey" stroke-width="2" points="582.75,-764.5 576.34,-756.07 576.09,-766.66 582.75,-764.5"/>
</g>
<!-- 2 -->
<g id="node3" class="node">
<title>2</title>
<path fill="none" stroke="#56c9d8" stroke-width="2" stroke-dasharray="5,2" d="M142,-828C142,-828 86,-828 86,-828 80,-828 74,-822 74,-816 74,-816 74,-804 74,-804 74,-798 80,-792 86,-792 86,-792 142,-792 142,-792 148,-792 154,-798 154,-804 154,-804 154,-816 154,-816 154,-822 148,-828 142,-828"/>
<text text-anchor="middle" x="114" y="-813" font-family="sans" font-size="10.00">trimmomatic</text>
<text text-anchor="middle" x="114" y="-802" font-family="sans" font-size="10.00">library: trunk</text>
</g>
<!-- 2&#45;&gt;0 -->
<g id="edge2" class="edge">
<title>2&#45;&gt;0</title>
<path fill="none" stroke="grey" stroke-width="2" d="M104.28,-791.75C76.71,-741.13 0,-587.98 0,-451 0,-451 0,-451 0,-161 0,-114.5 15.52,-96.57 55,-72 140.82,-18.6 458.04,-17.2 567.54,-18.38"/>
<polygon fill="grey" stroke="grey" stroke-width="2" points="567.73,-21.88 577.77,-18.5 567.82,-14.88 567.73,-21.88"/>
</g>
<!-- 10 -->
<g id="node11" class="node">
<title>10</title>
<path fill="none" stroke="#afd856" stroke-width="2" stroke-dasharray="5,2" d="M748,-180C748,-180 718,-180 718,-180 712,-180 706,-174 706,-168 706,-168 706,-156 706,-156 706,-150 712,-144 718,-144 718,-144 748,-144 748,-144 754,-144 760,-150 760,-156 760,-156 760,-168 760,-168 760,-174 754,-180 748,-180"/>
<text text-anchor="middle" x="733" y="-159.5" font-family="sans" font-size="10.00">multiqc</text>
</g>
<!-- 2&#45;&gt;10 -->
<g id="edge22" class="edge">
<title>2&#45;&gt;10</title>
<path fill="none" stroke="grey" stroke-width="2" d="M114,-791.95C114,-765.29 114,-712.11 114,-667 114,-667 114,-667 114,-305 114,-277.8 46.57,-286.46 241,-216 324.78,-185.64 595.84,-169.68 695.65,-164.72"/>
<polygon fill="grey" stroke="grey" stroke-width="2" points="696.05,-168.21 705.86,-164.22 695.71,-161.21 696.05,-168.21"/>
</g>
<!-- 2&#45;&gt;40 -->
<g id="edge84" class="edge">
<title>2&#45;&gt;40</title>
<path fill="none" stroke="grey" stroke-width="2" d="M154.23,-805.14C280.36,-793.03 667.44,-755.86 798.83,-743.24"/>
<polygon fill="grey" stroke="grey" stroke-width="2" points="799.31,-746.71 808.93,-742.27 798.65,-739.74 799.31,-746.71"/>
</g>
<!-- 3 -->
<g id="node4" class="node">
<title>3</title>
<path fill="none" stroke="#56c9d8" stroke-width="2" stroke-dasharray="5,2" d="M1193,-828C1193,-828 1137,-828 1137,-828 1131,-828 1125,-822 1125,-816 1125,-816 1125,-804 1125,-804 1125,-798 1131,-792 1137,-792 1137,-792 1193,-792 1193,-792 1199,-792 1205,-798 1205,-804 1205,-804 1205,-816 1205,-816 1205,-822 1199,-828 1193,-828"/>
<text text-anchor="middle" x="1165" y="-813" font-family="sans" font-size="10.00">trimmomatic</text>
<text text-anchor="middle" x="1165" y="-802" font-family="sans" font-size="10.00">library: leaf2</text>
</g>
<!-- 3&#45;&gt;0 -->
<g id="edge3" class="edge">
<title>3&#45;&gt;0</title>
<path fill="none" stroke="grey" stroke-width="2" d="M1166.19,-791.96C1167.93,-765.31 1171,-712.15 1171,-667 1171,-667 1171,-667 1171,-593 1171,-433 1209,-395 1209,-235 1209,-235 1209,-235 1209,-161 1209,-44.05 774.43,-23.33 642.52,-19.74"/>
<polygon fill="grey" stroke="grey" stroke-width="2" points="642.21,-16.23 632.13,-19.47 642.03,-23.23 642.21,-16.23"/>
</g>
<!-- 3&#45;&gt;10 -->
<g id="edge23" class="edge">
<title>3&#45;&gt;10</title>
<path fill="none" stroke="grey" stroke-width="2" d="M1162.25,-791.81C1148.77,-709.6 1086.91,-357.63 1006,-288 958.28,-246.93 922.9,-284.52 869,-252 850.42,-240.79 853.25,-229.17 836,-216 815.71,-200.51 790.23,-187.36 769.69,-178.03"/>
<polygon fill="grey" stroke="grey" stroke-width="2" points="770.9,-174.74 760.34,-173.89 768.06,-181.14 770.9,-174.74"/>
</g>
<!-- 3&#45;&gt;41 -->
<g id="edge87" class="edge">
<title>3&#45;&gt;41</title>
<path fill="none" stroke="grey" stroke-width="2" d="M1181.81,-791.7C1190.13,-783.14 1200.31,-772.66 1209.39,-763.3"/>
<polygon fill="grey" stroke="grey" stroke-width="2" points="1211.93,-765.72 1216.38,-756.1 1206.91,-760.84 1211.93,-765.72"/>
</g>
<!-- 4 -->
<g id="node5" class="node">
<title>4</title>
<path fill="none" stroke="#56c9d8" stroke-width="2" stroke-dasharray="5,2" d="M538,-828C538,-828 482,-828 482,-828 476,-828 470,-822 470,-816 470,-816 470,-804 470,-804 470,-798 476,-792 482,-792 482,-792 538,-792 538,-792 544,-792 550,-798 550,-804 550,-804 550,-816 550,-816 550,-822 544,-828 538,-828"/>
<text text-anchor="middle" x="510" y="-813" font-family="sans" font-size="10.00">trimmomatic</text>
<text text-anchor="middle" x="510" y="-802" font-family="sans" font-size="10.00">library: leaf1</text>
</g>
<!-- 4&#45;&gt;0 -->
<g id="edge4" class="edge">
<title>4&#45;&gt;0</title>
<path fill="none" stroke="grey" stroke-width="2" d="M479.39,-791.96C374.8,-731.23 38,-514 38,-235 38,-235 38,-235 38,-161 38,-107.81 70.66,-96.25 118,-72 196.51,-31.77 467.55,-21.94 567.56,-19.66"/>
<polygon fill="grey" stroke="grey" stroke-width="2" points="567.87,-23.15 577.79,-19.43 567.71,-16.15 567.87,-23.15"/>
</g>
<!-- 4&#45;&gt;10 -->
<g id="edge24" class="edge">
<title>4&#45;&gt;10</title>
<path fill="none" stroke="grey" stroke-width="2" d="M510,-791.95C510,-765.29 510,-712.11 510,-667 510,-667 510,-667 510,-377 510,-304.65 485.8,-269.95 534,-216 555.34,-192.12 644.27,-175.71 695.74,-168"/>
<polygon fill="grey" stroke="grey" stroke-width="2" points="696.42,-171.44 705.81,-166.54 695.41,-164.52 696.42,-171.44"/>
</g>
<!-- 4&#45;&gt;42 -->
<g id="edge90" class="edge">
<title>4&#45;&gt;42</title>
<path fill="none" stroke="grey" stroke-width="2" d="M525.33,-791.7C532.76,-783.3 541.82,-773.07 549.98,-763.86"/>
<polygon fill="grey" stroke="grey" stroke-width="2" points="552.84,-765.91 556.85,-756.1 547.6,-761.27 552.84,-765.91"/>
</g>
<!-- 5&#45;&gt;0 -->
<g id="edge5" class="edge">
<title>5&#45;&gt;0</title>
<path fill="none" stroke="grey" stroke-width="2" d="M670.73,-359.96C626.35,-341.12 562.65,-306.09 534,-252 496.71,-181.58 552.78,-88.59 584.98,-44.41"/>
<polygon fill="grey" stroke="grey" stroke-width="2" points="587.9,-46.35 591.07,-36.24 582.29,-42.17 587.9,-46.35"/>
</g>
<!-- 19 -->
<g id="node20" class="node">
<title>19</title>
<path fill="none" stroke="#d8cb56" stroke-width="2" stroke-dasharray="5,2" d="M731.5,-324C731.5,-324 664.5,-324 664.5,-324 658.5,-324 652.5,-318 652.5,-312 652.5,-312 652.5,-300 652.5,-300 652.5,-294 658.5,-288 664.5,-288 664.5,-288 731.5,-288 731.5,-288 737.5,-288 743.5,-294 743.5,-300 743.5,-300 743.5,-312 743.5,-312 743.5,-318 737.5,-324 731.5,-324"/>
<text text-anchor="middle" x="698" y="-303.5" font-family="sans" font-size="10.00">samtools_stats</text>
</g>
<!-- 5&#45;&gt;19 -->
<g id="edge42" class="edge">
<title>5&#45;&gt;19</title>
<path fill="none" stroke="grey" stroke-width="2" d="M713.06,-359.7C710.83,-351.9 708.15,-342.51 705.67,-333.83"/>
<polygon fill="grey" stroke="grey" stroke-width="2" points="709,-332.76 702.89,-324.1 702.27,-334.68 709,-332.76"/>
</g>
<!-- 5&#45;&gt;22 -->
<g id="edge46" class="edge">
<title>5&#45;&gt;22</title>
<path fill="none" stroke="grey" stroke-width="2" d="M773.81,-375.58C812.13,-371.32 860.5,-358.78 886,-324 895.46,-311.1 894.01,-301.85 886,-288 880.11,-277.81 857.19,-264.59 835.7,-253.9"/>
<polygon fill="grey" stroke="grey" stroke-width="2" points="837.15,-250.72 826.63,-249.49 834.09,-257.01 837.15,-250.72"/>
</g>
<!-- 5&#45;&gt;31 -->
<g id="edge65" class="edge">
<title>5&#45;&gt;31</title>
<path fill="none" stroke="grey" stroke-width="2" d="M662.33,-376.9C571.56,-375.48 397.69,-367.04 357,-324 341.73,-307.85 341.05,-281.91 343.4,-262.19"/>
<polygon fill="grey" stroke="grey" stroke-width="2" points="346.87,-262.66 344.9,-252.25 339.95,-261.62 346.87,-262.66"/>
</g>
<!-- 5&#45;&gt;32 -->
<g id="edge70" class="edge">
<title>5&#45;&gt;32</title>
<path fill="none" stroke="grey" stroke-width="2" d="M773.64,-365.5C904.91,-338.37 1232.19,-270.72 1356.27,-245.07"/>
<polygon fill="grey" stroke="grey" stroke-width="2" points="1357.16,-248.46 1366.24,-243.01 1355.74,-241.61 1357.16,-248.46"/>
</g>
<!-- 34 -->
<g id="node35" class="node">
<title>34</title>
<path fill="none" stroke="#5673d8" stroke-width="2" stroke-dasharray="5,2" d="M864.5,-324C864.5,-324 773.5,-324 773.5,-324 767.5,-324 761.5,-318 761.5,-312 761.5,-312 761.5,-300 761.5,-300 761.5,-294 767.5,-288 773.5,-288 773.5,-288 864.5,-288 864.5,-288 870.5,-288 876.5,-294 876.5,-300 876.5,-300 876.5,-312 876.5,-312 876.5,-318 870.5,-324 864.5,-324"/>
<text text-anchor="middle" x="819" y="-303.5" font-family="sans" font-size="10.00">samtools_index_md</text>
</g>
<!-- 5&#45;&gt;34 -->
<g id="edge74" class="edge">
<title>5&#45;&gt;34</title>
<path fill="none" stroke="grey" stroke-width="2" d="M742.71,-359.88C755.67,-350.89 771.73,-339.76 785.77,-330.03"/>
<polygon fill="grey" stroke="grey" stroke-width="2" points="787.97,-332.76 794.2,-324.19 783.98,-327.01 787.97,-332.76"/>
</g>
<!-- 6&#45;&gt;0 -->
<g id="edge6" class="edge">
<title>6&#45;&gt;0</title>
<path fill="none" stroke="grey" stroke-width="2" d="M1464.64,-362.55C1522.59,-343.75 1605,-304.75 1605,-235 1605,-235 1605,-235 1605,-161 1605,-39.28 1465.26,-96.32 1346,-72 1209.1,-44.08 773.17,-25.46 642.42,-20.39"/>
<polygon fill="grey" stroke="grey" stroke-width="2" points="642.26,-16.88 632.13,-20 641.99,-23.88 642.26,-16.88"/>
</g>
<!-- 20 -->
<g id="node21" class="node">
<title>20</title>
<path fill="none" stroke="#d8cb56" stroke-width="2" stroke-dasharray="5,2" d="M1316.5,-324C1316.5,-324 1249.5,-324 1249.5,-324 1243.5,-324 1237.5,-318 1237.5,-312 1237.5,-312 1237.5,-300 1237.5,-300 1237.5,-294 1243.5,-288 1249.5,-288 1249.5,-288 1316.5,-288 1316.5,-288 1322.5,-288 1328.5,-294 1328.5,-300 1328.5,-300 1328.5,-312 1328.5,-312 1328.5,-318 1322.5,-324 1316.5,-324"/>
<text text-anchor="middle" x="1283" y="-303.5" font-family="sans" font-size="10.00">samtools_stats</text>
</g>
<!-- 6&#45;&gt;20 -->
<g id="edge43" class="edge">
<title>6&#45;&gt;20</title>
<path fill="none" stroke="grey" stroke-width="2" d="M1378.18,-359.88C1361.55,-350.64 1340.84,-339.13 1322.98,-329.21"/>
<polygon fill="grey" stroke="grey" stroke-width="2" points="1324.38,-325.99 1313.94,-324.19 1320.98,-332.11 1324.38,-325.99"/>
</g>
<!-- 6&#45;&gt;23 -->
<g id="edge50" class="edge">
<title>6&#45;&gt;23</title>
<path fill="none" stroke="grey" stroke-width="2" d="M1399.83,-359.9C1388.13,-339.71 1366.02,-306.55 1338,-288 1293.08,-258.26 1231.62,-245.06 1190.91,-239.3"/>
<polygon fill="grey" stroke="grey" stroke-width="2" points="1191.15,-235.8 1180.78,-237.96 1190.23,-242.74 1191.15,-235.8"/>
</g>
<!-- 6&#45;&gt;32 -->
<g id="edge69" class="edge">
<title>6&#45;&gt;32</title>
<path fill="none" stroke="grey" stroke-width="2" d="M1464.66,-360.7C1482.28,-352.62 1499.81,-340.86 1510,-324 1518.28,-310.31 1518.39,-301.63 1510,-288 1497.47,-267.64 1474.44,-254.82 1453.14,-246.9"/>
<polygon fill="grey" stroke="grey" stroke-width="2" points="1454.11,-243.53 1443.51,-243.59 1451.84,-250.15 1454.11,-243.53"/>
</g>
<!-- 35 -->
<g id="node36" class="node">
<title>35</title>
<path fill="none" stroke="#5673d8" stroke-width="2" stroke-dasharray="5,2" d="M1488.5,-324C1488.5,-324 1397.5,-324 1397.5,-324 1391.5,-324 1385.5,-318 1385.5,-312 1385.5,-312 1385.5,-300 1385.5,-300 1385.5,-294 1391.5,-288 1397.5,-288 1397.5,-288 1488.5,-288 1488.5,-288 1494.5,-288 1500.5,-294 1500.5,-300 1500.5,-300 1500.5,-312 1500.5,-312 1500.5,-318 1494.5,-324 1488.5,-324"/>
<text text-anchor="middle" x="1443" y="-303.5" font-family="sans" font-size="10.00">samtools_index_md</text>
</g>
<!-- 6&#45;&gt;35 -->
<g id="edge75" class="edge">
<title>6&#45;&gt;35</title>
<path fill="none" stroke="grey" stroke-width="2" d="M1417.4,-359.7C1421.27,-351.73 1425.95,-342.1 1430.24,-333.26"/>
<polygon fill="grey" stroke="grey" stroke-width="2" points="1433.47,-334.63 1434.69,-324.1 1427.17,-331.57 1433.47,-334.63"/>
</g>
<!-- 7&#45;&gt;0 -->
<g id="edge7" class="edge">
<title>7&#45;&gt;0</title>
<path fill="none" stroke="grey" stroke-width="2" d="M244.4,-369.26C209.58,-362.16 165.34,-348.8 133,-324 95.73,-295.41 76,-281.97 76,-235 76,-235 76,-235 76,-161 76,-59.12 446.64,-28.3 567.44,-20.97"/>
<polygon fill="grey" stroke="grey" stroke-width="2" points="567.9,-24.45 577.67,-20.37 567.48,-17.46 567.9,-24.45"/>
</g>
<!-- 21 -->
<g id="node22" class="node">
<title>21</title>
<path fill="none" stroke="#d8cb56" stroke-width="2" stroke-dasharray="5,2" d="M221.5,-324C221.5,-324 154.5,-324 154.5,-324 148.5,-324 142.5,-318 142.5,-312 142.5,-312 142.5,-300 142.5,-300 142.5,-294 148.5,-288 154.5,-288 154.5,-288 221.5,-288 221.5,-288 227.5,-288 233.5,-294 233.5,-300 233.5,-300 233.5,-312 233.5,-312 233.5,-318 227.5,-324 221.5,-324"/>
<text text-anchor="middle" x="188" y="-303.5" font-family="sans" font-size="10.00">samtools_stats</text>
</g>
<!-- 7&#45;&gt;21 -->
<g id="edge44" class="edge">
<title>7&#45;&gt;21</title>
<path fill="none" stroke="grey" stroke-width="2" d="M272.6,-359.88C258.09,-350.81 240.08,-339.55 224.41,-329.76"/>
<polygon fill="grey" stroke="grey" stroke-width="2" points="225.84,-326.52 215.5,-324.19 222.13,-332.46 225.84,-326.52"/>
</g>
<!-- 7&#45;&gt;24 -->
<g id="edge54" class="edge">
<title>7&#45;&gt;24</title>
<path fill="none" stroke="grey" stroke-width="2" d="M355.74,-364.31C394.07,-354.89 445.83,-340.8 490,-324 540.55,-304.78 596.03,-276.54 632.29,-257.05"/>
<polygon fill="grey" stroke="grey" stroke-width="2" points="634.4,-259.88 641.53,-252.05 631.07,-253.73 634.4,-259.88"/>
</g>
<!-- 7&#45;&gt;31 -->
<g id="edge64" class="edge">
<title>7&#45;&gt;31</title>
<path fill="none" stroke="grey" stroke-width="2" d="M303.64,-359.99C307.73,-341.87 315,-312.49 324,-288 327.23,-279.21 331.36,-269.9 335.34,-261.57"/>
<polygon fill="grey" stroke="grey" stroke-width="2" points="338.61,-262.85 339.87,-252.33 332.32,-259.77 338.61,-262.85"/>
</g>
<!-- 36 -->
<g id="node37" class="node">
<title>36</title>
<path fill="none" stroke="#5673d8" stroke-width="2" stroke-dasharray="5,2" d="M469.5,-324C469.5,-324 378.5,-324 378.5,-324 372.5,-324 366.5,-318 366.5,-312 366.5,-312 366.5,-300 366.5,-300 366.5,-294 372.5,-288 378.5,-288 378.5,-288 469.5,-288 469.5,-288 475.5,-288 481.5,-294 481.5,-300 481.5,-300 481.5,-312 481.5,-312 481.5,-318 475.5,-324 469.5,-324"/>
<text text-anchor="middle" x="424" y="-303.5" font-family="sans" font-size="10.00">samtools_index_md</text>
</g>
<!-- 7&#45;&gt;36 -->
<g id="edge76" class="edge">
<title>7&#45;&gt;36</title>
<path fill="none" stroke="grey" stroke-width="2" d="M330.33,-359.88C346.7,-350.64 367.08,-339.13 384.65,-329.21"/>
<polygon fill="grey" stroke="grey" stroke-width="2" points="386.56,-332.15 393.55,-324.19 383.12,-326.06 386.56,-332.15"/>
</g>
<!-- 8 -->
<g id="node9" class="node">
<title>8</title>
<path fill="none" stroke="#56a9d8" stroke-width="2" stroke-dasharray="5,2" d="M424.5,-108C424.5,-108 377.5,-108 377.5,-108 371.5,-108 365.5,-102 365.5,-96 365.5,-96 365.5,-84 365.5,-84 365.5,-78 371.5,-72 377.5,-72 377.5,-72 424.5,-72 424.5,-72 430.5,-72 436.5,-78 436.5,-84 436.5,-84 436.5,-96 436.5,-96 436.5,-102 430.5,-108 424.5,-108"/>
<text text-anchor="middle" x="401" y="-87.5" font-family="sans" font-size="10.00">strelka2tsv</text>
</g>
<!-- 8&#45;&gt;0 -->
<g id="edge8" class="edge">
<title>8&#45;&gt;0</title>
<path fill="none" stroke="grey" stroke-width="2" d="M436.53,-76.81C473.42,-64.15 530.85,-44.44 568.2,-31.63"/>
<polygon fill="grey" stroke="grey" stroke-width="2" points="569.38,-34.92 577.7,-28.37 567.1,-28.3 569.38,-34.92"/>
</g>
<!-- 9 -->
<g id="node10" class="node">
<title>9</title>
<path fill="none" stroke="#56a9d8" stroke-width="2" stroke-dasharray="5,2" d="M1324.5,-108C1324.5,-108 1277.5,-108 1277.5,-108 1271.5,-108 1265.5,-102 1265.5,-96 1265.5,-96 1265.5,-84 1265.5,-84 1265.5,-78 1271.5,-72 1277.5,-72 1277.5,-72 1324.5,-72 1324.5,-72 1330.5,-72 1336.5,-78 1336.5,-84 1336.5,-84 1336.5,-96 1336.5,-96 1336.5,-102 1330.5,-108 1324.5,-108"/>
<text text-anchor="middle" x="1301" y="-87.5" font-family="sans" font-size="10.00">strelka2tsv</text>
</g>
<!-- 9&#45;&gt;0 -->
<g id="edge9" class="edge">
<title>9&#45;&gt;0</title>
<path fill="none" stroke="grey" stroke-width="2" d="M1265.46,-80.24C1252.2,-77.24 1236.98,-74.11 1223,-72 1004.4,-38.95 738.95,-24.82 642.39,-20.52"/>
<polygon fill="grey" stroke="grey" stroke-width="2" points="642.4,-17.02 632.25,-20.08 642.09,-24.01 642.4,-17.02"/>
</g>
<!-- 10&#45;&gt;0 -->
<g id="edge10" class="edge">
<title>10&#45;&gt;0</title>
<path fill="none" stroke="grey" stroke-width="2" d="M717.56,-143.87C695.07,-118.92 653.18,-72.45 627.33,-43.77"/>
<polygon fill="grey" stroke="grey" stroke-width="2" points="629.79,-41.27 620.49,-36.19 624.59,-45.96 629.79,-41.27"/>
</g>
<!-- 11&#45;&gt;5 -->
<g id="edge11" class="edge">
<title>11&#45;&gt;5</title>
<path fill="none" stroke="grey" stroke-width="2" d="M793.54,-431.88C780.7,-422.89 764.8,-411.76 750.91,-402.03"/>
<polygon fill="grey" stroke="grey" stroke-width="2" points="752.76,-399.06 742.56,-396.19 748.74,-404.79 752.76,-399.06"/>
</g>
<!-- 12&#45;&gt;6 -->
<g id="edge13" class="edge">
<title>12&#45;&gt;6</title>
<path fill="none" stroke="grey" stroke-width="2" d="M1342.75,-431.7C1353.84,-422.88 1367.47,-412.03 1379.49,-402.47"/>
<polygon fill="grey" stroke="grey" stroke-width="2" points="1381.85,-405.07 1387.5,-396.1 1377.49,-399.59 1381.85,-405.07"/>
</g>
<!-- 13&#45;&gt;7 -->
<g id="edge15" class="edge">
<title>13&#45;&gt;7</title>
<path fill="none" stroke="grey" stroke-width="2" d="M322.58,-431.7C319.21,-423.81 315.13,-414.3 311.38,-405.55"/>
<polygon fill="grey" stroke="grey" stroke-width="2" points="314.49,-403.92 307.33,-396.1 308.05,-406.67 314.49,-403.92"/>
</g>
<!-- 14 -->
<g id="node15" class="node">
<title>14</title>
<path fill="none" stroke="#56d892" stroke-width="2" stroke-dasharray="5,2" d="M418,-180C418,-180 338,-180 338,-180 332,-180 326,-174 326,-168 326,-168 326,-156 326,-156 326,-150 332,-144 338,-144 338,-144 418,-144 418,-144 424,-144 430,-150 430,-156 430,-156 430,-168 430,-168 430,-174 424,-180 418,-180"/>
<text text-anchor="middle" x="378" y="-159.5" font-family="sans" font-size="10.00">bedtools_subtract</text>
</g>
<!-- 14&#45;&gt;8 -->
<g id="edge17" class="edge">
<title>14&#45;&gt;8</title>
<path fill="none" stroke="grey" stroke-width="2" d="M383.69,-143.7C386.25,-135.9 389.33,-126.51 392.18,-117.83"/>
<polygon fill="grey" stroke="grey" stroke-width="2" points="395.58,-118.7 395.38,-108.1 388.93,-116.51 395.58,-118.7"/>
</g>
<!-- 15 -->
<g id="node16" class="node">
<title>15</title>
<path fill="none" stroke="#56d892" stroke-width="2" stroke-dasharray="5,2" d="M1368,-180C1368,-180 1288,-180 1288,-180 1282,-180 1276,-174 1276,-168 1276,-168 1276,-156 1276,-156 1276,-150 1282,-144 1288,-144 1288,-144 1368,-144 1368,-144 1374,-144 1380,-150 1380,-156 1380,-156 1380,-168 1380,-168 1380,-174 1374,-180 1368,-180"/>
<text text-anchor="middle" x="1328" y="-159.5" font-family="sans" font-size="10.00">bedtools_subtract</text>
</g>
<!-- 15&#45;&gt;9 -->
<g id="edge18" class="edge">
<title>15&#45;&gt;9</title>
<path fill="none" stroke="grey" stroke-width="2" d="M1321.33,-143.7C1318.29,-135.81 1314.62,-126.3 1311.24,-117.55"/>
<polygon fill="grey" stroke="grey" stroke-width="2" points="1314.46,-116.17 1307.6,-108.1 1307.93,-118.69 1314.46,-116.17"/>
</g>
<!-- 16 -->
<g id="node17" class="node">
<title>16</title>
<path fill="none" stroke="#56d873" stroke-width="2" stroke-dasharray="5,2" d="M988.5,-252C988.5,-252 933.5,-252 933.5,-252 927.5,-252 921.5,-246 921.5,-240 921.5,-240 921.5,-228 921.5,-228 921.5,-222 927.5,-216 933.5,-216 933.5,-216 988.5,-216 988.5,-216 994.5,-216 1000.5,-222 1000.5,-228 1000.5,-228 1000.5,-240 1000.5,-240 1000.5,-246 994.5,-252 988.5,-252"/>
<text text-anchor="middle" x="961" y="-237" font-family="sans" font-size="10.00">fastqc</text>
<text text-anchor="middle" x="961" y="-226" font-family="sans" font-size="10.00">library: trunk</text>
</g>
<!-- 16&#45;&gt;10 -->
<g id="edge19" class="edge">
<title>16&#45;&gt;10</title>
<path fill="none" stroke="grey" stroke-width="2" d="M921.49,-220.52C916.61,-218.99 911.69,-217.45 907,-216 859.78,-201.38 805.24,-184.82 770,-174.16"/>
<polygon fill="grey" stroke="grey" stroke-width="2" points="770.73,-170.73 760.15,-171.18 768.71,-177.43 770.73,-170.73"/>
</g>
<!-- 17 -->
<g id="node18" class="node">
<title>17</title>
<path fill="none" stroke="#56d873" stroke-width="2" stroke-dasharray="5,2" d="M1085,-252C1085,-252 1031,-252 1031,-252 1025,-252 1019,-246 1019,-240 1019,-240 1019,-228 1019,-228 1019,-222 1025,-216 1031,-216 1031,-216 1085,-216 1085,-216 1091,-216 1097,-222 1097,-228 1097,-228 1097,-240 1097,-240 1097,-246 1091,-252 1085,-252"/>
<text text-anchor="middle" x="1058" y="-237" font-family="sans" font-size="10.00">fastqc</text>
<text text-anchor="middle" x="1058" y="-226" font-family="sans" font-size="10.00">library: leaf2</text>
</g>
<!-- 17&#45;&gt;10 -->
<g id="edge20" class="edge">
<title>17&#45;&gt;10</title>
<path fill="none" stroke="grey" stroke-width="2" d="M1018.86,-218.59C1015.88,-217.66 1012.9,-216.79 1010,-216 925.38,-193.06 823.62,-176.28 770.09,-168.27"/>
<polygon fill="grey" stroke="grey" stroke-width="2" points="770.45,-164.78 760.05,-166.78 769.43,-171.71 770.45,-164.78"/>
</g>
<!-- 18 -->
<g id="node19" class="node">
<title>18</title>
<path fill="none" stroke="#56d873" stroke-width="2" stroke-dasharray="5,2" d="M609,-252C609,-252 555,-252 555,-252 549,-252 543,-246 543,-240 543,-240 543,-228 543,-228 543,-222 549,-216 555,-216 555,-216 609,-216 609,-216 615,-216 621,-222 621,-228 621,-228 621,-240 621,-240 621,-246 615,-252 609,-252"/>
<text text-anchor="middle" x="582" y="-237" font-family="sans" font-size="10.00">fastqc</text>
<text text-anchor="middle" x="582" y="-226" font-family="sans" font-size="10.00">library: leaf1</text>
</g>
<!-- 18&#45;&gt;10 -->
<g id="edge21" class="edge">
<title>18&#45;&gt;10</title>
<path fill="none" stroke="grey" stroke-width="2" d="M618.94,-215.88C642.57,-204.92 673.1,-190.77 696.63,-179.86"/>
<polygon fill="grey" stroke="grey" stroke-width="2" points="698.31,-182.94 705.91,-175.56 695.37,-176.59 698.31,-182.94"/>
</g>
<!-- 19&#45;&gt;10 -->
<g id="edge25" class="edge">
<title>19&#45;&gt;10</title>
<path fill="none" stroke="grey" stroke-width="2" d="M703.55,-287.92C706.81,-277.58 710.89,-264.1 714,-252 719.28,-231.47 724.24,-208.02 727.77,-190.34"/>
<polygon fill="grey" stroke="grey" stroke-width="2" points="731.28,-190.65 729.78,-180.16 724.41,-189.3 731.28,-190.65"/>
</g>
<!-- 20&#45;&gt;10 -->
<g id="edge26" class="edge">
<title>20&#45;&gt;10</title>
<path fill="none" stroke="grey" stroke-width="2" d="M1237.22,-301.53C1151.52,-294.52 970.33,-277.19 913,-252 889.87,-241.84 890.82,-228.74 869,-216 837.43,-197.56 798.25,-183.07 770.06,-173.94"/>
<polygon fill="grey" stroke="grey" stroke-width="2" points="770.8,-170.5 760.21,-170.81 768.68,-177.17 770.8,-170.5"/>
</g>
<!-- 21&#45;&gt;10 -->
<g id="edge27" class="edge">
<title>21&#45;&gt;10</title>
<path fill="none" stroke="grey" stroke-width="2" d="M203.71,-287.88C223.97,-267.01 261.35,-232.51 301,-216 372.21,-186.35 604.61,-170.28 695.8,-164.99"/>
<polygon fill="grey" stroke="grey" stroke-width="2" points="696.16,-168.48 705.95,-164.41 695.76,-161.49 696.16,-168.48"/>
</g>
<!-- 22&#45;&gt;10 -->
<g id="edge28" class="edge">
<title>22&#45;&gt;10</title>
<path fill="none" stroke="grey" stroke-width="2" d="M778.92,-215.7C771.61,-207.3 762.69,-197.07 754.66,-187.86"/>
<polygon fill="grey" stroke="grey" stroke-width="2" points="757.11,-185.34 747.91,-180.1 751.84,-189.94 757.11,-185.34"/>
</g>
<!-- 23&#45;&gt;10 -->
<g id="edge29" class="edge">
<title>23&#45;&gt;10</title>
<path fill="none" stroke="grey" stroke-width="2" d="M1115.25,-218.86C1112.15,-217.79 1109.04,-216.82 1106,-216 985.79,-183.65 838.16,-170.11 770.32,-165.29"/>
<polygon fill="grey" stroke="grey" stroke-width="2" points="770.35,-161.78 760.14,-164.59 769.87,-168.77 770.35,-161.78"/>
</g>
<!-- 24&#45;&gt;10 -->
<g id="edge30" class="edge">
<title>24&#45;&gt;10</title>
<path fill="none" stroke="grey" stroke-width="2" d="M687.08,-215.7C694.39,-207.3 703.31,-197.07 711.34,-187.86"/>
<polygon fill="grey" stroke="grey" stroke-width="2" points="714.16,-189.94 718.09,-180.1 708.89,-185.34 714.16,-189.94"/>
</g>
<!-- 25 -->
<g id="node26" class="node">
<title>25</title>
<path fill="none" stroke="#d8ac56" stroke-width="2" stroke-dasharray="5,2" d="M841,-612C841,-612 779,-612 779,-612 773,-612 767,-606 767,-600 767,-600 767,-588 767,-588 767,-582 773,-576 779,-576 779,-576 841,-576 841,-576 847,-576 853,-582 853,-588 853,-588 853,-600 853,-600 853,-606 847,-612 841,-612"/>
<text text-anchor="middle" x="810" y="-591.5" font-family="sans" font-size="10.00">samtools_sort</text>
</g>
<!-- 25&#45;&gt;11 -->
<g id="edge31" class="edge">
<title>25&#45;&gt;11</title>
<path fill="none" stroke="grey" stroke-width="2" d="M794.39,-575.77C786.63,-566.03 778.05,-553.18 774,-540 769.3,-524.71 768.57,-519.05 774,-504 777.75,-493.6 784.54,-483.8 791.67,-475.52"/>
<polygon fill="grey" stroke="grey" stroke-width="2" points="794.32,-477.81 798.53,-468.08 789.17,-473.06 794.32,-477.81"/>
</g>
<!-- 26 -->
<g id="node27" class="node">
<title>26</title>
<path fill="none" stroke="#d85656" stroke-width="2" stroke-dasharray="5,2" d="M865,-540C865,-540 795,-540 795,-540 789,-540 783,-534 783,-528 783,-528 783,-516 783,-516 783,-510 789,-504 795,-504 795,-504 865,-504 865,-504 871,-504 877,-510 877,-516 877,-516 877,-528 877,-528 877,-534 871,-540 865,-540"/>
<text text-anchor="middle" x="830" y="-519.5" font-family="sans" font-size="10.00">samtools_index</text>
</g>
<!-- 25&#45;&gt;26 -->
<g id="edge58" class="edge">
<title>25&#45;&gt;26</title>
<path fill="none" stroke="grey" stroke-width="2" d="M814.94,-575.7C817.17,-567.9 819.85,-558.51 822.33,-549.83"/>
<polygon fill="grey" stroke="grey" stroke-width="2" points="825.73,-550.68 825.11,-540.1 819,-548.76 825.73,-550.68"/>
</g>
<!-- 26&#45;&gt;11 -->
<g id="edge33" class="edge">
<title>26&#45;&gt;11</title>
<path fill="none" stroke="grey" stroke-width="2" d="M827.03,-503.7C825.71,-495.98 824.12,-486.71 822.65,-478.11"/>
<polygon fill="grey" stroke="grey" stroke-width="2" points="826.07,-477.37 820.93,-468.1 819.17,-478.55 826.07,-477.37"/>
</g>
<!-- 27 -->
<g id="node28" class="node">
<title>27</title>
<path fill="none" stroke="#d8ac56" stroke-width="2" stroke-dasharray="5,2" d="M1297,-612C1297,-612 1235,-612 1235,-612 1229,-612 1223,-606 1223,-600 1223,-600 1223,-588 1223,-588 1223,-582 1229,-576 1235,-576 1235,-576 1297,-576 1297,-576 1303,-576 1309,-582 1309,-588 1309,-588 1309,-600 1309,-600 1309,-606 1303,-612 1297,-612"/>
<text text-anchor="middle" x="1266" y="-591.5" font-family="sans" font-size="10.00">samtools_sort</text>
</g>
<!-- 27&#45;&gt;12 -->
<g id="edge34" class="edge">
<title>27&#45;&gt;12</title>
<path fill="none" stroke="grey" stroke-width="2" d="M1280.16,-575.85C1287.69,-565.93 1296.5,-552.89 1302,-540 1310.41,-520.29 1315.24,-496.49 1317.93,-478.46"/>
<polygon fill="grey" stroke="grey" stroke-width="2" points="1321.43,-478.71 1319.3,-468.33 1314.49,-477.76 1321.43,-478.71"/>
</g>
<!-- 28 -->
<g id="node29" class="node">
<title>28</title>
<path fill="none" stroke="#d85656" stroke-width="2" stroke-dasharray="5,2" d="M1281,-540C1281,-540 1211,-540 1211,-540 1205,-540 1199,-534 1199,-528 1199,-528 1199,-516 1199,-516 1199,-510 1205,-504 1211,-504 1211,-504 1281,-504 1281,-504 1287,-504 1293,-510 1293,-516 1293,-516 1293,-528 1293,-528 1293,-534 1287,-540 1281,-540"/>
<text text-anchor="middle" x="1246" y="-519.5" font-family="sans" font-size="10.00">samtools_index</text>
</g>
<!-- 27&#45;&gt;28 -->
<g id="edge60" class="edge">
<title>27&#45;&gt;28</title>
<path fill="none" stroke="grey" stroke-width="2" d="M1261.06,-575.7C1258.83,-567.9 1256.15,-558.51 1253.67,-549.83"/>
<polygon fill="grey" stroke="grey" stroke-width="2" points="1257,-548.76 1250.89,-540.1 1250.27,-550.68 1257,-548.76"/>
</g>
<!-- 28&#45;&gt;12 -->
<g id="edge36" class="edge">
<title>28&#45;&gt;12</title>
<path fill="none" stroke="grey" stroke-width="2" d="M1264.54,-503.7C1273.8,-495.05 1285.16,-484.45 1295.26,-475.03"/>
<polygon fill="grey" stroke="grey" stroke-width="2" points="1297.75,-477.49 1302.67,-468.1 1292.98,-472.37 1297.75,-477.49"/>
</g>
<!-- 29 -->
<g id="node30" class="node">
<title>29</title>
<path fill="none" stroke="#d8ac56" stroke-width="2" stroke-dasharray="5,2" d="M449,-612C449,-612 387,-612 387,-612 381,-612 375,-606 375,-600 375,-600 375,-588 375,-588 375,-582 381,-576 387,-576 387,-576 449,-576 449,-576 455,-576 461,-582 461,-588 461,-588 461,-600 461,-600 461,-606 455,-612 449,-612"/>
<text text-anchor="middle" x="418" y="-591.5" font-family="sans" font-size="10.00">samtools_sort</text>
</g>
<!-- 29&#45;&gt;13 -->
<g id="edge37" class="edge">
<title>29&#45;&gt;13</title>
<path fill="none" stroke="grey" stroke-width="2" d="M395.38,-575.87C384.07,-566.35 370.94,-553.67 362,-540 349.55,-520.96 341.2,-496.45 336.16,-477.98"/>
<polygon fill="grey" stroke="grey" stroke-width="2" points="339.52,-476.96 333.64,-468.15 332.74,-478.7 339.52,-476.96"/>
</g>
<!-- 30 -->
<g id="node31" class="node">
<title>30</title>
<path fill="none" stroke="#d85656" stroke-width="2" stroke-dasharray="5,2" d="M453,-540C453,-540 383,-540 383,-540 377,-540 371,-534 371,-528 371,-528 371,-516 371,-516 371,-510 377,-504 383,-504 383,-504 453,-504 453,-504 459,-504 465,-510 465,-516 465,-516 465,-528 465,-528 465,-534 459,-540 453,-540"/>
<text text-anchor="middle" x="418" y="-519.5" font-family="sans" font-size="10.00">samtools_index</text>
</g>
<!-- 29&#45;&gt;30 -->
<g id="edge62" class="edge">
<title>29&#45;&gt;30</title>
<path fill="none" stroke="grey" stroke-width="2" d="M418,-575.7C418,-567.98 418,-558.71 418,-550.11"/>
<polygon fill="grey" stroke="grey" stroke-width="2" points="421.5,-550.1 418,-540.1 414.5,-550.1 421.5,-550.1"/>
</g>
<!-- 30&#45;&gt;13 -->
<g id="edge39" class="edge">
<title>30&#45;&gt;13</title>
<path fill="none" stroke="grey" stroke-width="2" d="M396.25,-503.7C385.16,-494.88 371.53,-484.03 359.51,-474.47"/>
<polygon fill="grey" stroke="grey" stroke-width="2" points="361.51,-471.59 351.5,-468.1 357.15,-477.07 361.51,-471.59"/>
</g>
<!-- 31&#45;&gt;14 -->
<g id="edge40" class="edge">
<title>31&#45;&gt;14</title>
<path fill="none" stroke="grey" stroke-width="2" d="M356.17,-215.7C359.43,-207.81 363.37,-198.3 367,-189.55"/>
<polygon fill="grey" stroke="grey" stroke-width="2" points="370.32,-190.68 370.91,-180.1 363.85,-188 370.32,-190.68"/>
</g>
<!-- 32&#45;&gt;15 -->
<g id="edge41" class="edge">
<title>32&#45;&gt;15</title>
<path fill="none" stroke="grey" stroke-width="2" d="M1385.97,-215.7C1376.46,-207.05 1364.79,-196.45 1354.43,-187.03"/>
<polygon fill="grey" stroke="grey" stroke-width="2" points="1356.57,-184.24 1346.81,-180.1 1351.86,-189.42 1356.57,-184.24"/>
</g>
<!-- 33&#45;&gt;22 -->
<g id="edge47" class="edge">
<title>33&#45;&gt;22</title>
<path fill="none" stroke="grey" stroke-width="2" d="M970.57,-792C974.36,-765.4 981,-712.3 981,-667 981,-667 981,-667 981,-377 981,-336.03 985.42,-317.51 957,-288 919.55,-249.12 892.17,-269.19 841,-252 839.39,-251.46 837.75,-250.9 836.09,-250.33"/>
<polygon fill="grey" stroke="grey" stroke-width="2" points="837.14,-246.99 826.55,-246.99 834.83,-253.6 837.14,-246.99"/>
</g>
<!-- 33&#45;&gt;23 -->
<g id="edge51" class="edge">
<title>33&#45;&gt;23</title>
<path fill="none" stroke="grey" stroke-width="2" d="M978.57,-791.79C993.51,-765.77 1019,-714.41 1019,-667 1019,-667 1019,-667 1019,-593 1019,-461.58 1096.89,-318.24 1131.62,-260.85"/>
<polygon fill="grey" stroke="grey" stroke-width="2" points="1134.76,-262.44 1137,-252.08 1128.79,-258.78 1134.76,-262.44"/>
</g>
<!-- 33&#45;&gt;24 -->
<g id="edge55" class="edge">
<title>33&#45;&gt;24</title>
<path fill="none" stroke="grey" stroke-width="2" d="M962.94,-791.68C955.64,-765.11 943,-712.56 943,-667 943,-667 943,-667 943,-377 943,-330.03 924.18,-315.37 886,-288 872.1,-278.03 773.26,-256.14 714.89,-243.84"/>
<polygon fill="grey" stroke="grey" stroke-width="2" points="715.34,-240.36 704.84,-241.73 713.9,-247.21 715.34,-240.36"/>
</g>
<!-- 33&#45;&gt;40 -->
<g id="edge85" class="edge">
<title>33&#45;&gt;40</title>
<path fill="none" stroke="grey" stroke-width="2" d="M937.42,-791.88C920.93,-782.64 900.38,-771.13 882.66,-761.21"/>
<polygon fill="grey" stroke="grey" stroke-width="2" points="884.13,-758.02 873.7,-756.19 880.71,-764.13 884.13,-758.02"/>
</g>
<!-- 33&#45;&gt;41 -->
<g id="edge88" class="edge">
<title>33&#45;&gt;41</title>
<path fill="none" stroke="grey" stroke-width="2" d="M1002.64,-799.85C1050.49,-787.21 1136.79,-764.41 1189.1,-750.6"/>
<polygon fill="grey" stroke="grey" stroke-width="2" points="1189.99,-753.98 1198.77,-748.04 1188.21,-747.21 1189.99,-753.98"/>
</g>
<!-- 33&#45;&gt;42 -->
<g id="edge91" class="edge">
<title>33&#45;&gt;42</title>
<path fill="none" stroke="grey" stroke-width="2" d="M933.2,-802.85C861.14,-790.11 695.65,-760.86 616.18,-746.81"/>
<polygon fill="grey" stroke="grey" stroke-width="2" points="616.47,-743.31 606.01,-745.01 615.25,-750.2 616.47,-743.31"/>
</g>
<!-- 34&#45;&gt;22 -->
<g id="edge48" class="edge">
<title>34&#45;&gt;22</title>
<path fill="none" stroke="grey" stroke-width="2" d="M812.82,-287.7C810,-279.81 806.61,-270.3 803.48,-261.55"/>
<polygon fill="grey" stroke="grey" stroke-width="2" points="806.77,-260.34 800.11,-252.1 800.18,-262.7 806.77,-260.34"/>
</g>
<!-- 34&#45;&gt;31 -->
<g id="edge67" class="edge">
<title>34&#45;&gt;31</title>
<path fill="none" stroke="grey" stroke-width="2" d="M761.14,-289.67C758.4,-289.08 755.67,-288.52 753,-288 625.98,-263.4 474.24,-246.9 397.94,-239.48"/>
<polygon fill="grey" stroke="grey" stroke-width="2" points="397.98,-235.97 387.69,-238.49 397.31,-242.94 397.98,-235.97"/>
</g>
<!-- 34&#45;&gt;32 -->
<g id="edge72" class="edge">
<title>34&#45;&gt;32</title>
<path fill="none" stroke="grey" stroke-width="2" d="M876.52,-298.13C991.64,-284.38 1248.52,-253.69 1356.12,-240.84"/>
<polygon fill="grey" stroke="grey" stroke-width="2" points="1356.84,-244.28 1366.36,-239.62 1356.01,-237.33 1356.84,-244.28"/>
</g>
<!-- 35&#45;&gt;23 -->
<g id="edge52" class="edge">
<title>35&#45;&gt;23</title>
<path fill="none" stroke="grey" stroke-width="2" d="M1385.42,-291.34C1328.2,-277.76 1241.79,-257.25 1190.51,-245.09"/>
<polygon fill="grey" stroke="grey" stroke-width="2" points="1191.28,-241.67 1180.75,-242.77 1189.67,-248.48 1191.28,-241.67"/>
</g>
<!-- 35&#45;&gt;32 -->
<g id="edge71" class="edge">
<title>35&#45;&gt;32</title>
<path fill="none" stroke="grey" stroke-width="2" d="M1433.61,-287.7C1429.24,-279.64 1423.94,-269.89 1419.1,-260.98"/>
<polygon fill="grey" stroke="grey" stroke-width="2" points="1422.13,-259.22 1414.29,-252.1 1415.98,-262.56 1422.13,-259.22"/>
</g>
<!-- 36&#45;&gt;24 -->
<g id="edge56" class="edge">
<title>36&#45;&gt;24</title>
<path fill="none" stroke="grey" stroke-width="2" d="M481.87,-292.28C521.21,-283.14 574.51,-269.79 629.57,-251.93"/>
<polygon fill="grey" stroke="grey" stroke-width="2" points="630.73,-255.23 639.14,-248.78 628.55,-248.58 630.73,-255.23"/>
</g>
<!-- 36&#45;&gt;31 -->
<g id="edge66" class="edge">
<title>36&#45;&gt;31</title>
<path fill="none" stroke="grey" stroke-width="2" d="M405.46,-287.7C396.2,-279.05 384.84,-268.45 374.74,-259.03"/>
<polygon fill="grey" stroke="grey" stroke-width="2" points="377.02,-256.37 367.33,-252.1 372.25,-261.49 377.02,-256.37"/>
</g>
<!-- 37&#45;&gt;25 -->
<g id="edge57" class="edge">
<title>37&#45;&gt;25</title>
<path fill="none" stroke="grey" stroke-width="2" d="M810,-647.7C810,-639.98 810,-630.71 810,-622.11"/>
<polygon fill="grey" stroke="grey" stroke-width="2" points="813.5,-622.1 810,-612.1 806.5,-622.1 813.5,-622.1"/>
</g>
<!-- 38&#45;&gt;27 -->
<g id="edge59" class="edge">
<title>38&#45;&gt;27</title>
<path fill="none" stroke="grey" stroke-width="2" d="M1266,-647.7C1266,-639.98 1266,-630.71 1266,-622.11"/>
<polygon fill="grey" stroke="grey" stroke-width="2" points="1269.5,-622.1 1266,-612.1 1262.5,-622.1 1269.5,-622.1"/>
</g>
<!-- 39&#45;&gt;29 -->
<g id="edge61" class="edge">
<title>39&#45;&gt;29</title>
<path fill="none" stroke="grey" stroke-width="2" d="M432.3,-647.7C430.19,-639.9 427.64,-630.51 425.28,-621.83"/>
<polygon fill="grey" stroke="grey" stroke-width="2" points="428.64,-620.84 422.64,-612.1 421.88,-622.67 428.64,-620.84"/>
</g>
<!-- 40&#45;&gt;37 -->
<g id="edge77" class="edge">
<title>40&#45;&gt;37</title>
<path fill="none" stroke="grey" stroke-width="2" d="M834.84,-719.7C831.09,-711.73 826.55,-702.1 822.38,-693.26"/>
<polygon fill="grey" stroke="grey" stroke-width="2" points="825.49,-691.66 818.06,-684.1 819.16,-694.64 825.49,-691.66"/>
</g>
<!-- 41&#45;&gt;38 -->
<g id="edge79" class="edge">
<title>41&#45;&gt;38</title>
<path fill="none" stroke="grey" stroke-width="2" d="M1241.16,-719.7C1244.91,-711.73 1249.45,-702.1 1253.62,-693.26"/>
<polygon fill="grey" stroke="grey" stroke-width="2" points="1256.84,-694.64 1257.94,-684.1 1250.51,-691.66 1256.84,-694.64"/>
</g>
<!-- 42&#45;&gt;39 -->
<g id="edge81" class="edge">
<title>42&#45;&gt;39</title>
<path fill="none" stroke="grey" stroke-width="2" d="M538.98,-719.88C520.92,-710.51 498.35,-698.81 479.05,-688.8"/>
<polygon fill="grey" stroke="grey" stroke-width="2" points="480.64,-685.69 470.15,-684.19 477.42,-691.9 480.64,-685.69"/>
</g>
</g>
</svg>
