<?xml version="1.0" encoding="UTF-8" standalone="no"?>
<!DOCTYPE svg PUBLIC "-//W3C//DTD SVG 1.1//EN"
 "http://www.w3.org/Graphics/SVG/1.1/DTD/svg11.dtd">
<!-- Generated by graphviz version 2.43.0 (0)
 -->
<!-- Title: snakemake_dag Pages: 1 -->
<svg width="1620pt" height="692pt"
 viewBox="0.00 0.00 1619.50 692.00" xmlns="http://www.w3.org/2000/svg" xmlns:xlink="http://www.w3.org/1999/xlink">
<g id="graph0" class="graph" transform="scale(1 1) rotate(0) translate(4 688)">
<title>snakemake_dag</title>
<polygon fill="white" stroke="transparent" points="-4,4 -4,-688 1615.5,-688 1615.5,4 -4,4"/>
<!-- 0 -->
<g id="node1" class="node">
<title>0</title>
<path fill="none" stroke="#88d856" stroke-width="2" d="M1362.5,-36C1362.5,-36 1332.5,-36 1332.5,-36 1326.5,-36 1320.5,-30 1320.5,-24 1320.5,-24 1320.5,-12 1320.5,-12 1320.5,-6 1326.5,0 1332.5,0 1332.5,0 1362.5,0 1362.5,0 1368.5,0 1374.5,-6 1374.5,-12 1374.5,-12 1374.5,-24 1374.5,-24 1374.5,-30 1368.5,-36 1362.5,-36"/>
<text text-anchor="middle" x="1347.5" y="-15.5" font-family="sans" font-size="10.00">all</text>
</g>
<!-- 1 -->
<g id="node2" class="node">
<title>1</title>
<path fill="none" stroke="#567bd8" stroke-width="2" d="M1476,-108C1476,-108 1429,-108 1429,-108 1423,-108 1417,-102 1417,-96 1417,-96 1417,-84 1417,-84 1417,-78 1423,-72 1429,-72 1429,-72 1476,-72 1476,-72 1482,-72 1488,-78 1488,-84 1488,-84 1488,-96 1488,-96 1488,-102 1482,-108 1476,-108"/>
<text text-anchor="middle" x="1452.5" y="-87.5" font-family="sans" font-size="10.00">strelka2tsv</text>
</g>
<!-- 1&#45;&gt;0 -->
<g id="edge1" class="edge">
<title>1&#45;&gt;0</title>
<path fill="none" stroke="grey" stroke-width="2" d="M1426.81,-71.88C1413.21,-62.81 1396.33,-51.55 1381.64,-41.76"/>
<polygon fill="grey" stroke="grey" stroke-width="2" points="1383.55,-38.82 1373.28,-36.19 1379.66,-44.65 1383.55,-38.82"/>
</g>
<!-- 2 -->
<g id="node3" class="node">
<title>2</title>
<path fill="none" stroke="#567bd8" stroke-width="2" d="M1371,-108C1371,-108 1324,-108 1324,-108 1318,-108 1312,-102 1312,-96 1312,-96 1312,-84 1312,-84 1312,-78 1318,-72 1324,-72 1324,-72 1371,-72 1371,-72 1377,-72 1383,-78 1383,-84 1383,-84 1383,-96 1383,-96 1383,-102 1377,-108 1371,-108"/>
<text text-anchor="middle" x="1347.5" y="-87.5" font-family="sans" font-size="10.00">strelka2tsv</text>
</g>
<!-- 2&#45;&gt;0 -->
<g id="edge2" class="edge">
<title>2&#45;&gt;0</title>
<path fill="none" stroke="grey" stroke-width="2" d="M1347.5,-71.7C1347.5,-63.98 1347.5,-54.71 1347.5,-46.11"/>
<polygon fill="grey" stroke="grey" stroke-width="2" points="1351,-46.1 1347.5,-36.1 1344,-46.1 1351,-46.1"/>
</g>
<!-- 3 -->
<g id="node4" class="node">
<title>3</title>
<path fill="none" stroke="#56d8a9" stroke-width="2" d="M557.5,-180C557.5,-180 527.5,-180 527.5,-180 521.5,-180 515.5,-174 515.5,-168 515.5,-168 515.5,-156 515.5,-156 515.5,-150 521.5,-144 527.5,-144 527.5,-144 557.5,-144 557.5,-144 563.5,-144 569.5,-150 569.5,-156 569.5,-156 569.5,-168 569.5,-168 569.5,-174 563.5,-180 557.5,-180"/>
<text text-anchor="middle" x="542.5" y="-159.5" font-family="sans" font-size="10.00">multiqc</text>
</g>
<!-- 3&#45;&gt;0 -->
<g id="edge3" class="edge">
<title>3&#45;&gt;0</title>
<path fill="none" stroke="grey" stroke-width="2" d="M569.75,-156.19C689.8,-135.02 1171.74,-50 1310.16,-25.59"/>
<polygon fill="grey" stroke="grey" stroke-width="2" points="1311.02,-28.99 1320.26,-23.8 1309.81,-22.1 1311.02,-28.99"/>
</g>
<!-- 4 -->
<g id="node5" class="node">
<title>4</title>
<path fill="none" stroke="#56d86b" stroke-width="2" d="M1516.5,-180C1516.5,-180 1436.5,-180 1436.5,-180 1430.5,-180 1424.5,-174 1424.5,-168 1424.5,-168 1424.5,-156 1424.5,-156 1424.5,-150 1430.5,-144 1436.5,-144 1436.5,-144 1516.5,-144 1516.5,-144 1522.5,-144 1528.5,-150 1528.5,-156 1528.5,-156 1528.5,-168 1528.5,-168 1528.5,-174 1522.5,-180 1516.5,-180"/>
<text text-anchor="middle" x="1476.5" y="-159.5" font-family="sans" font-size="10.00">bedtools_subtract</text>
</g>
<!-- 4&#45;&gt;1 -->
<g id="edge4" class="edge">
<title>4&#45;&gt;1</title>
<path fill="none" stroke="grey" stroke-width="2" d="M1470.57,-143.7C1467.89,-135.9 1464.67,-126.51 1461.7,-117.83"/>
<polygon fill="grey" stroke="grey" stroke-width="2" points="1464.92,-116.43 1458.36,-108.1 1458.3,-118.7 1464.92,-116.43"/>
</g>
<!-- 5 -->
<g id="node6" class="node">
<title>5</title>
<path fill="none" stroke="#56d86b" stroke-width="2" d="M1387.5,-180C1387.5,-180 1307.5,-180 1307.5,-180 1301.5,-180 1295.5,-174 1295.5,-168 1295.5,-168 1295.5,-156 1295.5,-156 1295.5,-150 1301.5,-144 1307.5,-144 1307.5,-144 1387.5,-144 1387.5,-144 1393.5,-144 1399.5,-150 1399.5,-156 1399.5,-156 1399.5,-168 1399.5,-168 1399.5,-174 1393.5,-180 1387.5,-180"/>
<text text-anchor="middle" x="1347.5" y="-159.5" font-family="sans" font-size="10.00">bedtools_subtract</text>
</g>
<!-- 5&#45;&gt;2 -->
<g id="edge5" class="edge">
<title>5&#45;&gt;2</title>
<path fill="none" stroke="grey" stroke-width="2" d="M1347.5,-143.7C1347.5,-135.98 1347.5,-126.71 1347.5,-118.11"/>
<polygon fill="grey" stroke="grey" stroke-width="2" points="1351,-118.1 1347.5,-108.1 1344,-118.1 1351,-118.1"/>
</g>
<!-- 6 -->
<g id="node7" class="node">
<title>6</title>
<path fill="none" stroke="#56c1d8" stroke-width="2" d="M67,-252C67,-252 12,-252 12,-252 6,-252 0,-246 0,-240 0,-240 0,-228 0,-228 0,-222 6,-216 12,-216 12,-216 67,-216 67,-216 73,-216 79,-222 79,-228 79,-228 79,-240 79,-240 79,-246 73,-252 67,-252"/>
<text text-anchor="middle" x="39.5" y="-237" font-family="sans" font-size="10.00">fastqc</text>
<text text-anchor="middle" x="39.5" y="-226" font-family="sans" font-size="10.00">library: trunk</text>
</g>
<!-- 6&#45;&gt;3 -->
<g id="edge6" class="edge">
<title>6&#45;&gt;3</title>
<path fill="none" stroke="grey" stroke-width="2" d="M79.13,-218.44C82.28,-217.53 85.43,-216.7 88.5,-216 240.5,-181.2 426.66,-168.6 504.97,-164.62"/>
<polygon fill="grey" stroke="grey" stroke-width="2" points="505.47,-168.1 515.29,-164.11 505.13,-161.11 505.47,-168.1"/>
</g>
<!-- 7 -->
<g id="node8" class="node">
<title>7</title>
<path fill="none" stroke="#56c1d8" stroke-width="2" d="M163.5,-252C163.5,-252 109.5,-252 109.5,-252 103.5,-252 97.5,-246 97.5,-240 97.5,-240 97.5,-228 97.5,-228 97.5,-222 103.5,-216 109.5,-216 109.5,-216 163.5,-216 163.5,-216 169.5,-216 175.5,-222 175.5,-228 175.5,-228 175.5,-240 175.5,-240 175.5,-246 169.5,-252 163.5,-252"/>
<text text-anchor="middle" x="136.5" y="-237" font-family="sans" font-size="10.00">fastqc</text>
<text text-anchor="middle" x="136.5" y="-226" font-family="sans" font-size="10.00">library: leaf2</text>
</g>
<!-- 7&#45;&gt;3 -->
<g id="edge7" class="edge">
<title>7&#45;&gt;3</title>
<path fill="none" stroke="grey" stroke-width="2" d="M175.6,-218.46C178.59,-217.56 181.58,-216.73 184.5,-216 299.44,-187.42 439.22,-172.19 504.94,-166.15"/>
<polygon fill="grey" stroke="grey" stroke-width="2" points="505.56,-169.61 515.21,-165.23 504.93,-162.64 505.56,-169.61"/>
</g>
<!-- 8 -->
<g id="node9" class="node">
<title>8</title>
<path fill="none" stroke="#56c1d8" stroke-width="2" d="M259.5,-252C259.5,-252 205.5,-252 205.5,-252 199.5,-252 193.5,-246 193.5,-240 193.5,-240 193.5,-228 193.5,-228 193.5,-222 199.5,-216 205.5,-216 205.5,-216 259.5,-216 259.5,-216 265.5,-216 271.5,-222 271.5,-228 271.5,-228 271.5,-240 271.5,-240 271.5,-246 265.5,-252 259.5,-252"/>
<text text-anchor="middle" x="232.5" y="-237" font-family="sans" font-size="10.00">fastqc</text>
<text text-anchor="middle" x="232.5" y="-226" font-family="sans" font-size="10.00">library: leaf1</text>
</g>
<!-- 8&#45;&gt;3 -->
<g id="edge8" class="edge">
<title>8&#45;&gt;3</title>
<path fill="none" stroke="grey" stroke-width="2" d="M271.72,-219.9C276.35,-218.51 281.01,-217.18 285.5,-216 362.84,-195.69 454.93,-178.31 505.2,-169.4"/>
<polygon fill="grey" stroke="grey" stroke-width="2" points="506.03,-172.81 515.27,-167.63 504.81,-165.91 506.03,-172.81"/>
</g>
<!-- 9 -->
<g id="node10" class="node">
<title>9</title>
<path fill="none" stroke="#d87556" stroke-width="2" d="M1030.5,-612C1030.5,-612 974.5,-612 974.5,-612 968.5,-612 962.5,-606 962.5,-600 962.5,-600 962.5,-588 962.5,-588 962.5,-582 968.5,-576 974.5,-576 974.5,-576 1030.5,-576 1030.5,-576 1036.5,-576 1042.5,-582 1042.5,-588 1042.5,-588 1042.5,-600 1042.5,-600 1042.5,-606 1036.5,-612 1030.5,-612"/>
<text text-anchor="middle" x="1002.5" y="-597" font-family="sans" font-size="10.00">trimmomatic</text>
<text text-anchor="middle" x="1002.5" y="-586" font-family="sans" font-size="10.00">library: trunk</text>
</g>
<!-- 9&#45;&gt;3 -->
<g id="edge9" class="edge">
<title>9&#45;&gt;3</title>
<path fill="none" stroke="grey" stroke-width="2" d="M999.88,-575.53C994.14,-543.06 977.53,-473 936.5,-432 906.61,-402.13 885.18,-416.98 848.5,-396 790.53,-362.84 636.34,-239.26 571.68,-186.8"/>
<polygon fill="grey" stroke="grey" stroke-width="2" points="573.5,-183.76 563.53,-180.17 569.09,-189.2 573.5,-183.76"/>
</g>
<!-- 31 -->
<g id="node32" class="node">
<title>31</title>
<path fill="none" stroke="#68d856" stroke-width="2" d="M1121.5,-540C1121.5,-540 1077.5,-540 1077.5,-540 1071.5,-540 1065.5,-534 1065.5,-528 1065.5,-528 1065.5,-516 1065.5,-516 1065.5,-510 1071.5,-504 1077.5,-504 1077.5,-504 1121.5,-504 1121.5,-504 1127.5,-504 1133.5,-510 1133.5,-516 1133.5,-516 1133.5,-528 1133.5,-528 1133.5,-534 1127.5,-540 1121.5,-540"/>
<text text-anchor="middle" x="1099.5" y="-519.5" font-family="sans" font-size="10.00">bwa_mem</text>
</g>
<!-- 9&#45;&gt;31 -->
<g id="edge59" class="edge">
<title>9&#45;&gt;31</title>
<path fill="none" stroke="grey" stroke-width="2" d="M1026.48,-575.7C1038.81,-566.8 1054.02,-555.82 1067.35,-546.2"/>
<polygon fill="grey" stroke="grey" stroke-width="2" points="1069.74,-548.79 1075.8,-540.1 1065.64,-543.12 1069.74,-548.79"/>
</g>
<!-- 10 -->
<g id="node11" class="node">
<title>10</title>
<path fill="none" stroke="#d87556" stroke-width="2" d="M615.5,-612C615.5,-612 559.5,-612 559.5,-612 553.5,-612 547.5,-606 547.5,-600 547.5,-600 547.5,-588 547.5,-588 547.5,-582 553.5,-576 559.5,-576 559.5,-576 615.5,-576 615.5,-576 621.5,-576 627.5,-582 627.5,-588 627.5,-588 627.5,-600 627.5,-600 627.5,-606 621.5,-612 615.5,-612"/>
<text text-anchor="middle" x="587.5" y="-597" font-family="sans" font-size="10.00">trimmomatic</text>
<text text-anchor="middle" x="587.5" y="-586" font-family="sans" font-size="10.00">library: leaf2</text>
</g>
<!-- 10&#45;&gt;3 -->
<g id="edge10" class="edge">
<title>10&#45;&gt;3</title>
<path fill="none" stroke="grey" stroke-width="2" d="M593.12,-575.69C602.22,-544.09 616.37,-476.25 586.5,-432 577.66,-418.91 332.3,-337.12 323.5,-324 296.77,-284.13 293.82,-253.72 323.5,-216 345.7,-187.78 448.68,-172.78 505.16,-166.55"/>
<polygon fill="grey" stroke="grey" stroke-width="2" points="505.57,-170.03 515.14,-165.49 504.83,-163.07 505.57,-170.03"/>
</g>
<!-- 32 -->
<g id="node33" class="node">
<title>32</title>
<path fill="none" stroke="#68d856" stroke-width="2" d="M565.5,-540C565.5,-540 521.5,-540 521.5,-540 515.5,-540 509.5,-534 509.5,-528 509.5,-528 509.5,-516 509.5,-516 509.5,-510 515.5,-504 521.5,-504 521.5,-504 565.5,-504 565.5,-504 571.5,-504 577.5,-510 577.5,-516 577.5,-516 577.5,-528 577.5,-528 577.5,-534 571.5,-540 565.5,-540"/>
<text text-anchor="middle" x="543.5" y="-519.5" font-family="sans" font-size="10.00">bwa_mem</text>
</g>
<!-- 10&#45;&gt;32 -->
<g id="edge62" class="edge">
<title>10&#45;&gt;32</title>
<path fill="none" stroke="grey" stroke-width="2" d="M576.62,-575.7C571.51,-567.56 565.3,-557.69 559.66,-548.7"/>
<polygon fill="grey" stroke="grey" stroke-width="2" points="562.54,-546.71 554.25,-540.1 556.61,-550.43 562.54,-546.71"/>
</g>
<!-- 11 -->
<g id="node12" class="node">
<title>11</title>
<path fill="none" stroke="#d87556" stroke-width="2" d="M751.5,-612C751.5,-612 695.5,-612 695.5,-612 689.5,-612 683.5,-606 683.5,-600 683.5,-600 683.5,-588 683.5,-588 683.5,-582 689.5,-576 695.5,-576 695.5,-576 751.5,-576 751.5,-576 757.5,-576 763.5,-582 763.5,-588 763.5,-588 763.5,-600 763.5,-600 763.5,-606 757.5,-612 751.5,-612"/>
<text text-anchor="middle" x="723.5" y="-597" font-family="sans" font-size="10.00">trimmomatic</text>
<text text-anchor="middle" x="723.5" y="-586" font-family="sans" font-size="10.00">library: leaf1</text>
</g>
<!-- 11&#45;&gt;3 -->
<g id="edge11" class="edge">
<title>11&#45;&gt;3</title>
<path fill="none" stroke="grey" stroke-width="2" d="M714.89,-575.93C698.14,-544.13 658.4,-475.13 608.5,-432 582.03,-409.12 569.56,-412.09 538.5,-396 507.79,-380.09 501.43,-373.3 469.5,-360 420.84,-339.73 387.6,-366.55 356.5,-324 307.84,-257.42 438.4,-199.69 505.5,-175.33"/>
<polygon fill="grey" stroke="grey" stroke-width="2" points="507.06,-178.49 515.31,-171.84 504.71,-171.9 507.06,-178.49"/>
</g>
<!-- 33 -->
<g id="node34" class="node">
<title>33</title>
<path fill="none" stroke="#68d856" stroke-width="2" d="M873.5,-540C873.5,-540 829.5,-540 829.5,-540 823.5,-540 817.5,-534 817.5,-528 817.5,-528 817.5,-516 817.5,-516 817.5,-510 823.5,-504 829.5,-504 829.5,-504 873.5,-504 873.5,-504 879.5,-504 885.5,-510 885.5,-516 885.5,-516 885.5,-528 885.5,-528 885.5,-534 879.5,-540 873.5,-540"/>
<text text-anchor="middle" x="851.5" y="-519.5" font-family="sans" font-size="10.00">bwa_mem</text>
</g>
<!-- 11&#45;&gt;33 -->
<g id="edge65" class="edge">
<title>11&#45;&gt;33</title>
<path fill="none" stroke="grey" stroke-width="2" d="M754.81,-575.88C771.7,-566.64 792.75,-555.13 810.88,-545.21"/>
<polygon fill="grey" stroke="grey" stroke-width="2" points="812.97,-548.06 820.07,-540.19 809.61,-541.92 812.97,-548.06"/>
</g>
<!-- 12 -->
<g id="node13" class="node">
<title>12</title>
<path fill="none" stroke="#d85656" stroke-width="2" d="M1307,-324C1307,-324 1240,-324 1240,-324 1234,-324 1228,-318 1228,-312 1228,-312 1228,-300 1228,-300 1228,-294 1234,-288 1240,-288 1240,-288 1307,-288 1307,-288 1313,-288 1319,-294 1319,-300 1319,-300 1319,-312 1319,-312 1319,-318 1313,-324 1307,-324"/>
<text text-anchor="middle" x="1273.5" y="-303.5" font-family="sans" font-size="10.00">samtools_stats</text>
</g>
<!-- 12&#45;&gt;3 -->
<g id="edge12" class="edge">
<title>12&#45;&gt;3</title>
<path fill="none" stroke="grey" stroke-width="2" d="M1265.28,-287.7C1254.25,-266.65 1232.52,-231.96 1202.5,-216 1147.47,-186.73 711.89,-169.01 580.13,-164.28"/>
<polygon fill="grey" stroke="grey" stroke-width="2" points="579.87,-160.77 569.75,-163.91 579.62,-167.77 579.87,-160.77"/>
</g>
<!-- 13 -->
<g id="node14" class="node">
<title>13</title>
<path fill="none" stroke="#d85656" stroke-width="2" d="M445,-324C445,-324 378,-324 378,-324 372,-324 366,-318 366,-312 366,-312 366,-300 366,-300 366,-294 372,-288 378,-288 378,-288 445,-288 445,-288 451,-288 457,-294 457,-300 457,-300 457,-312 457,-312 457,-318 451,-324 445,-324"/>
<text text-anchor="middle" x="411.5" y="-303.5" font-family="sans" font-size="10.00">samtools_stats</text>
</g>
<!-- 13&#45;&gt;3 -->
<g id="edge13" class="edge">
<title>13&#45;&gt;3</title>
<path fill="none" stroke="grey" stroke-width="2" d="M427.3,-287.87C450.32,-262.92 493.19,-216.45 519.65,-187.77"/>
<polygon fill="grey" stroke="grey" stroke-width="2" points="522.43,-189.91 526.64,-180.19 517.29,-185.17 522.43,-189.91"/>
</g>
<!-- 14 -->
<g id="node15" class="node">
<title>14</title>
<path fill="none" stroke="#d85656" stroke-width="2" d="M1045,-324C1045,-324 978,-324 978,-324 972,-324 966,-318 966,-312 966,-312 966,-300 966,-300 966,-294 972,-288 978,-288 978,-288 1045,-288 1045,-288 1051,-288 1057,-294 1057,-300 1057,-300 1057,-312 1057,-312 1057,-318 1051,-324 1045,-324"/>
<text text-anchor="middle" x="1011.5" y="-303.5" font-family="sans" font-size="10.00">samtools_stats</text>
</g>
<!-- 14&#45;&gt;3 -->
<g id="edge14" class="edge">
<title>14&#45;&gt;3</title>
<path fill="none" stroke="grey" stroke-width="2" d="M986.98,-287.88C956.62,-267.51 902.62,-234.01 851.5,-216 757.06,-182.73 638.8,-169.91 579.71,-165.32"/>
<polygon fill="grey" stroke="grey" stroke-width="2" points="579.95,-161.83 569.72,-164.59 579.44,-168.81 579.95,-161.83"/>
</g>
<!-- 15 -->
<g id="node16" class="node">
<title>15</title>
<path fill="none" stroke="#56d88a" stroke-width="2" d="M1182,-252C1182,-252 1141,-252 1141,-252 1135,-252 1129,-246 1129,-240 1129,-240 1129,-228 1129,-228 1129,-222 1135,-216 1141,-216 1141,-216 1182,-216 1182,-216 1188,-216 1194,-222 1194,-228 1194,-228 1194,-240 1194,-240 1194,-246 1188,-252 1182,-252"/>
<text text-anchor="middle" x="1161.5" y="-231.5" font-family="sans" font-size="10.00">mosdepth</text>
</g>
<!-- 15&#45;&gt;3 -->
<g id="edge15" class="edge">
<title>15&#45;&gt;3</title>
<path fill="none" stroke="grey" stroke-width="2" d="M1128.66,-229.29C1022.85,-217.32 691.28,-179.82 579.62,-167.2"/>
<polygon fill="grey" stroke="grey" stroke-width="2" points="579.85,-163.7 569.52,-166.06 579.06,-170.66 579.85,-163.7"/>
</g>
<!-- 16 -->
<g id="node17" class="node">
<title>16</title>
<path fill="none" stroke="#56d88a" stroke-width="2" d="M563,-252C563,-252 522,-252 522,-252 516,-252 510,-246 510,-240 510,-240 510,-228 510,-228 510,-222 516,-216 522,-216 522,-216 563,-216 563,-216 569,-216 575,-222 575,-228 575,-228 575,-240 575,-240 575,-246 569,-252 563,-252"/>
<text text-anchor="middle" x="542.5" y="-231.5" font-family="sans" font-size="10.00">mosdepth</text>
</g>
<!-- 16&#45;&gt;3 -->
<g id="edge16" class="edge">
<title>16&#45;&gt;3</title>
<path fill="none" stroke="grey" stroke-width="2" d="M542.5,-215.7C542.5,-207.98 542.5,-198.71 542.5,-190.11"/>
<polygon fill="grey" stroke="grey" stroke-width="2" points="546,-190.1 542.5,-180.1 539,-190.1 546,-190.1"/>
</g>
<!-- 17 -->
<g id="node18" class="node">
<title>17</title>
<path fill="none" stroke="#56d88a" stroke-width="2" d="M831,-252C831,-252 790,-252 790,-252 784,-252 778,-246 778,-240 778,-240 778,-228 778,-228 778,-222 784,-216 790,-216 790,-216 831,-216 831,-216 837,-216 843,-222 843,-228 843,-228 843,-240 843,-240 843,-246 837,-252 831,-252"/>
<text text-anchor="middle" x="810.5" y="-231.5" font-family="sans" font-size="10.00">mosdepth</text>
</g>
<!-- 17&#45;&gt;3 -->
<g id="edge17" class="edge">
<title>17&#45;&gt;3</title>
<path fill="none" stroke="grey" stroke-width="2" d="M777.79,-220.64C773.02,-218.99 768.15,-217.4 763.5,-216 699.64,-196.86 623.81,-179.9 579.63,-170.58"/>
<polygon fill="grey" stroke="grey" stroke-width="2" points="580.14,-167.11 569.63,-168.49 578.71,-173.96 580.14,-167.11"/>
</g>
<!-- 18 -->
<g id="node19" class="node">
<title>18</title>
<path fill="none" stroke="#ced856" stroke-width="2" d="M1517,-252C1517,-252 1464,-252 1464,-252 1458,-252 1452,-246 1452,-240 1452,-240 1452,-228 1452,-228 1452,-222 1458,-216 1464,-216 1464,-216 1517,-216 1517,-216 1523,-216 1529,-222 1529,-228 1529,-228 1529,-240 1529,-240 1529,-246 1523,-252 1517,-252"/>
<text text-anchor="middle" x="1490.5" y="-237" font-family="sans" font-size="10.00">strelka2</text>
<text text-anchor="middle" x="1490.5" y="-226" font-family="sans" font-size="10.00">tumor: leaf1</text>
</g>
<!-- 18&#45;&gt;4 -->
<g id="edge18" class="edge">
<title>18&#45;&gt;4</title>
<path fill="none" stroke="grey" stroke-width="2" d="M1487.04,-215.7C1485.5,-207.98 1483.64,-198.71 1481.92,-190.11"/>
<polygon fill="grey" stroke="grey" stroke-width="2" points="1485.31,-189.22 1479.92,-180.1 1478.45,-190.6 1485.31,-189.22"/>
</g>
<!-- 19 -->
<g id="node20" class="node">
<title>19</title>
<path fill="none" stroke="#ced856" stroke-width="2" d="M1374,-252C1374,-252 1321,-252 1321,-252 1315,-252 1309,-246 1309,-240 1309,-240 1309,-228 1309,-228 1309,-222 1315,-216 1321,-216 1321,-216 1374,-216 1374,-216 1380,-216 1386,-222 1386,-228 1386,-228 1386,-240 1386,-240 1386,-246 1380,-252 1374,-252"/>
<text text-anchor="middle" x="1347.5" y="-237" font-family="sans" font-size="10.00">strelka2</text>
<text text-anchor="middle" x="1347.5" y="-226" font-family="sans" font-size="10.00">tumor: leaf2</text>
</g>
<!-- 19&#45;&gt;5 -->
<g id="edge19" class="edge">
<title>19&#45;&gt;5</title>
<path fill="none" stroke="grey" stroke-width="2" d="M1347.5,-215.7C1347.5,-207.98 1347.5,-198.71 1347.5,-190.11"/>
<polygon fill="grey" stroke="grey" stroke-width="2" points="1351,-190.1 1347.5,-180.1 1344,-190.1 1351,-190.1"/>
</g>
<!-- 20 -->
<g id="node21" class="node">
<title>20</title>
<path fill="none" stroke="#afd856" stroke-width="2" d="M1341.5,-396C1341.5,-396 1279.5,-396 1279.5,-396 1273.5,-396 1267.5,-390 1267.5,-384 1267.5,-384 1267.5,-372 1267.5,-372 1267.5,-366 1273.5,-360 1279.5,-360 1279.5,-360 1341.5,-360 1341.5,-360 1347.5,-360 1353.5,-366 1353.5,-372 1353.5,-372 1353.5,-384 1353.5,-384 1353.5,-390 1347.5,-396 1341.5,-396"/>
<text text-anchor="middle" x="1310.5" y="-375.5" font-family="sans" font-size="10.00">samtools_sort</text>
</g>
<!-- 20&#45;&gt;12 -->
<g id="edge20" class="edge">
<title>20&#45;&gt;12</title>
<path fill="none" stroke="grey" stroke-width="2" d="M1301.35,-359.7C1297.1,-351.64 1291.94,-341.89 1287.23,-332.98"/>
<polygon fill="grey" stroke="grey" stroke-width="2" points="1290.31,-331.31 1282.54,-324.1 1284.12,-334.58 1290.31,-331.31"/>
</g>
<!-- 20&#45;&gt;15 -->
<g id="edge24" class="edge">
<title>20&#45;&gt;15</title>
<path fill="none" stroke="grey" stroke-width="2" d="M1271.47,-359.79C1253.96,-350.81 1233.84,-338.63 1218.5,-324 1199.53,-305.9 1183.98,-280.29 1173.95,-261.18"/>
<polygon fill="grey" stroke="grey" stroke-width="2" points="1176.99,-259.45 1169.34,-252.12 1170.75,-262.62 1176.99,-259.45"/>
</g>
<!-- 20&#45;&gt;18 -->
<g id="edge37" class="edge">
<title>20&#45;&gt;18</title>
<path fill="none" stroke="grey" stroke-width="2" d="M1353.72,-371.76C1406.86,-364.33 1492.39,-348.8 1511.5,-324 1525.41,-305.95 1517.12,-280.17 1507.15,-261"/>
<polygon fill="grey" stroke="grey" stroke-width="2" points="1510.16,-259.19 1502.22,-252.18 1504.05,-262.61 1510.16,-259.19"/>
</g>
<!-- 20&#45;&gt;19 -->
<g id="edge42" class="edge">
<title>20&#45;&gt;19</title>
<path fill="none" stroke="grey" stroke-width="2" d="M1316.4,-359.93C1319.87,-349.6 1324.2,-336.12 1327.5,-324 1333.08,-303.5 1338.3,-280.04 1342.01,-262.36"/>
<polygon fill="grey" stroke="grey" stroke-width="2" points="1345.52,-262.67 1344.12,-252.17 1338.67,-261.26 1345.52,-262.67"/>
</g>
<!-- 25 -->
<g id="node26" class="node">
<title>25</title>
<path fill="none" stroke="#569ad8" stroke-width="2" d="M1457.5,-324C1457.5,-324 1387.5,-324 1387.5,-324 1381.5,-324 1375.5,-318 1375.5,-312 1375.5,-312 1375.5,-300 1375.5,-300 1375.5,-294 1381.5,-288 1387.5,-288 1387.5,-288 1457.5,-288 1457.5,-288 1463.5,-288 1469.5,-294 1469.5,-300 1469.5,-300 1469.5,-312 1469.5,-312 1469.5,-318 1463.5,-324 1457.5,-324"/>
<text text-anchor="middle" x="1422.5" y="-303.5" font-family="sans" font-size="10.00">samtools_index</text>
</g>
<!-- 20&#45;&gt;25 -->
<g id="edge49" class="edge">
<title>20&#45;&gt;25</title>
<path fill="none" stroke="grey" stroke-width="2" d="M1337.9,-359.88C1352.41,-350.81 1370.42,-339.55 1386.09,-329.76"/>
<polygon fill="grey" stroke="grey" stroke-width="2" points="1388.37,-332.46 1395,-324.19 1384.66,-326.52 1388.37,-332.46"/>
</g>
<!-- 21 -->
<g id="node22" class="node">
<title>21</title>
<path fill="none" stroke="#afd856" stroke-width="2" d="M621.5,-396C621.5,-396 559.5,-396 559.5,-396 553.5,-396 547.5,-390 547.5,-384 547.5,-384 547.5,-372 547.5,-372 547.5,-366 553.5,-360 559.5,-360 559.5,-360 621.5,-360 621.5,-360 627.5,-360 633.5,-366 633.5,-372 633.5,-372 633.5,-384 633.5,-384 633.5,-390 627.5,-396 621.5,-396"/>
<text text-anchor="middle" x="590.5" y="-375.5" font-family="sans" font-size="10.00">samtools_sort</text>
</g>
<!-- 21&#45;&gt;13 -->
<g id="edge21" class="edge">
<title>21&#45;&gt;13</title>
<path fill="none" stroke="grey" stroke-width="2" d="M547.17,-360.05C522.29,-350.33 490.85,-338.03 464.51,-327.73"/>
<polygon fill="grey" stroke="grey" stroke-width="2" points="465.64,-324.41 455.05,-324.03 463.09,-330.93 465.64,-324.41"/>
</g>
<!-- 21&#45;&gt;16 -->
<g id="edge28" class="edge">
<title>21&#45;&gt;16</title>
<path fill="none" stroke="grey" stroke-width="2" d="M571.77,-359.72C562.72,-350.15 552.71,-337.48 547.5,-324 539.89,-304.3 538.97,-280.32 539.77,-262.21"/>
<polygon fill="grey" stroke="grey" stroke-width="2" points="543.28,-262.25 540.43,-252.05 536.29,-261.8 543.28,-262.25"/>
</g>
<!-- 21&#45;&gt;19 -->
<g id="edge41" class="edge">
<title>21&#45;&gt;19</title>
<path fill="none" stroke="grey" stroke-width="2" d="M633.52,-375.01C717.42,-370.5 908.41,-357.22 1065.5,-324 1149.37,-306.26 1243.8,-273.8 1299.34,-253.37"/>
<polygon fill="grey" stroke="grey" stroke-width="2" points="1300.75,-256.58 1308.91,-249.82 1298.32,-250.01 1300.75,-256.58"/>
</g>
<!-- 26 -->
<g id="node27" class="node">
<title>26</title>
<path fill="none" stroke="#569ad8" stroke-width="2" d="M671.5,-324C671.5,-324 601.5,-324 601.5,-324 595.5,-324 589.5,-318 589.5,-312 589.5,-312 589.5,-300 589.5,-300 589.5,-294 595.5,-288 601.5,-288 601.5,-288 671.5,-288 671.5,-288 677.5,-288 683.5,-294 683.5,-300 683.5,-300 683.5,-312 683.5,-312 683.5,-318 677.5,-324 671.5,-324"/>
<text text-anchor="middle" x="636.5" y="-303.5" font-family="sans" font-size="10.00">samtools_index</text>
</g>
<!-- 21&#45;&gt;26 -->
<g id="edge50" class="edge">
<title>21&#45;&gt;26</title>
<path fill="none" stroke="grey" stroke-width="2" d="M601.87,-359.7C607.22,-351.56 613.7,-341.69 619.61,-332.7"/>
<polygon fill="grey" stroke="grey" stroke-width="2" points="622.69,-334.38 625.26,-324.1 616.84,-330.54 622.69,-334.38"/>
</g>
<!-- 22 -->
<g id="node23" class="node">
<title>22</title>
<path fill="none" stroke="#afd856" stroke-width="2" d="M931.5,-396C931.5,-396 869.5,-396 869.5,-396 863.5,-396 857.5,-390 857.5,-384 857.5,-384 857.5,-372 857.5,-372 857.5,-366 863.5,-360 869.5,-360 869.5,-360 931.5,-360 931.5,-360 937.5,-360 943.5,-366 943.5,-372 943.5,-372 943.5,-384 943.5,-384 943.5,-390 937.5,-396 931.5,-396"/>
<text text-anchor="middle" x="900.5" y="-375.5" font-family="sans" font-size="10.00">samtools_sort</text>
</g>
<!-- 22&#45;&gt;14 -->
<g id="edge22" class="edge">
<title>22&#45;&gt;14</title>
<path fill="none" stroke="grey" stroke-width="2" d="M927.65,-359.88C942.03,-350.81 959.88,-339.55 975.41,-329.76"/>
<polygon fill="grey" stroke="grey" stroke-width="2" points="977.65,-332.48 984.24,-324.19 973.92,-326.56 977.65,-332.48"/>
</g>
<!-- 22&#45;&gt;17 -->
<g id="edge32" class="edge">
<title>22&#45;&gt;17</title>
<path fill="none" stroke="grey" stroke-width="2" d="M877.99,-359.8C866.71,-350.25 853.57,-337.58 844.5,-324 831.77,-304.94 822.86,-280.44 817.36,-261.97"/>
<polygon fill="grey" stroke="grey" stroke-width="2" points="820.67,-260.81 814.59,-252.14 813.94,-262.71 820.67,-260.81"/>
</g>
<!-- 22&#45;&gt;18 -->
<g id="edge36" class="edge">
<title>22&#45;&gt;18</title>
<path fill="none" stroke="grey" stroke-width="2" d="M943.68,-374.51C1074.58,-366.76 1459.2,-342.5 1478.5,-324 1494.72,-308.46 1496.48,-282.21 1494.92,-262.24"/>
<polygon fill="grey" stroke="grey" stroke-width="2" points="1498.39,-261.74 1493.83,-252.17 1491.43,-262.5 1498.39,-261.74"/>
</g>
<!-- 27 -->
<g id="node28" class="node">
<title>27</title>
<path fill="none" stroke="#569ad8" stroke-width="2" d="M935.5,-324C935.5,-324 865.5,-324 865.5,-324 859.5,-324 853.5,-318 853.5,-312 853.5,-312 853.5,-300 853.5,-300 853.5,-294 859.5,-288 865.5,-288 865.5,-288 935.5,-288 935.5,-288 941.5,-288 947.5,-294 947.5,-300 947.5,-300 947.5,-312 947.5,-312 947.5,-318 941.5,-324 935.5,-324"/>
<text text-anchor="middle" x="900.5" y="-303.5" font-family="sans" font-size="10.00">samtools_index</text>
</g>
<!-- 22&#45;&gt;27 -->
<g id="edge51" class="edge">
<title>22&#45;&gt;27</title>
<path fill="none" stroke="grey" stroke-width="2" d="M900.5,-359.7C900.5,-351.98 900.5,-342.71 900.5,-334.11"/>
<polygon fill="grey" stroke="grey" stroke-width="2" points="904,-334.1 900.5,-324.1 897,-334.1 904,-334.1"/>
</g>
<!-- 23 -->
<g id="node24" class="node">
<title>23</title>
<path fill="none" stroke="#56d8d0" stroke-width="2" d="M926.5,-684C926.5,-684 870.5,-684 870.5,-684 864.5,-684 858.5,-678 858.5,-672 858.5,-672 858.5,-660 858.5,-660 858.5,-654 864.5,-648 870.5,-648 870.5,-648 926.5,-648 926.5,-648 932.5,-648 938.5,-654 938.5,-660 938.5,-660 938.5,-672 938.5,-672 938.5,-678 932.5,-684 926.5,-684"/>
<text text-anchor="middle" x="898.5" y="-663.5" font-family="sans" font-size="10.00">cp_reference</text>
</g>
<!-- 23&#45;&gt;15 -->
<g id="edge23" class="edge">
<title>23&#45;&gt;15</title>
<path fill="none" stroke="grey" stroke-width="2" d="M938.73,-661.6C1012.4,-652.92 1161.5,-623.02 1161.5,-523 1161.5,-523 1161.5,-523 1161.5,-377 1161.5,-337 1161.5,-290.65 1161.5,-262.08"/>
<polygon fill="grey" stroke="grey" stroke-width="2" points="1165,-262.05 1161.5,-252.05 1158,-262.05 1165,-262.05"/>
</g>
<!-- 23&#45;&gt;16 -->
<g id="edge27" class="edge">
<title>23&#45;&gt;16</title>
<path fill="none" stroke="grey" stroke-width="2" d="M858.29,-664.23C768,-661.8 552.46,-651.87 493.5,-612 455.91,-586.59 443.5,-568.37 443.5,-523 443.5,-523 443.5,-523 443.5,-449 443.5,-374.79 493.15,-298.36 522.13,-260.08"/>
<polygon fill="grey" stroke="grey" stroke-width="2" points="524.97,-262.12 528.32,-252.06 519.43,-257.84 524.97,-262.12"/>
</g>
<!-- 23&#45;&gt;17 -->
<g id="edge31" class="edge">
<title>23&#45;&gt;17</title>
<path fill="none" stroke="grey" stroke-width="2" d="M858.35,-661.37C800.19,-655.2 697,-640.44 674.5,-612 585.71,-499.75 727.42,-324.48 786.53,-259.94"/>
<polygon fill="grey" stroke="grey" stroke-width="2" points="789.4,-261.99 793.64,-252.28 784.27,-257.23 789.4,-261.99"/>
</g>
<!-- 23&#45;&gt;18 -->
<g id="edge35" class="edge">
<title>23&#45;&gt;18</title>
<path fill="none" stroke="grey" stroke-width="2" d="M938.9,-665.08C1059.72,-664.77 1416.31,-659.74 1520.5,-612 1571.93,-588.43 1611.5,-579.57 1611.5,-523 1611.5,-523 1611.5,-523 1611.5,-377 1611.5,-325.05 1563.99,-282.45 1528.52,-257.88"/>
<polygon fill="grey" stroke="grey" stroke-width="2" points="1530.05,-254.69 1519.79,-252.03 1526.15,-260.5 1530.05,-254.69"/>
</g>
<!-- 23&#45;&gt;19 -->
<g id="edge40" class="edge">
<title>23&#45;&gt;19</title>
<path fill="none" stroke="grey" stroke-width="2" d="M938.7,-665.17C1084.02,-664.72 1573.5,-653.53 1573.5,-523 1573.5,-523 1573.5,-523 1573.5,-377 1573.5,-293.81 1462.35,-257.46 1395.95,-243.17"/>
<polygon fill="grey" stroke="grey" stroke-width="2" points="1396.59,-239.73 1386.09,-241.14 1395.18,-246.59 1396.59,-239.73"/>
</g>
<!-- 24 -->
<g id="node25" class="node">
<title>24</title>
<path fill="none" stroke="#d89c56" stroke-width="2" d="M839,-612C839,-612 794,-612 794,-612 788,-612 782,-606 782,-600 782,-600 782,-588 782,-588 782,-582 788,-576 794,-576 794,-576 839,-576 839,-576 845,-576 851,-582 851,-588 851,-588 851,-600 851,-600 851,-606 845,-612 839,-612"/>
<text text-anchor="middle" x="816.5" y="-591.5" font-family="sans" font-size="10.00">bwa_index</text>
</g>
<!-- 23&#45;&gt;24 -->
<g id="edge48" class="edge">
<title>23&#45;&gt;24</title>
<path fill="none" stroke="grey" stroke-width="2" d="M878.23,-647.7C868,-638.97 855.44,-628.24 844.32,-618.75"/>
<polygon fill="grey" stroke="grey" stroke-width="2" points="846.41,-615.94 836.54,-612.1 841.87,-621.26 846.41,-615.94"/>
</g>
<!-- 28 -->
<g id="node29" class="node">
<title>28</title>
<path fill="none" stroke="#d8bc56" stroke-width="2" d="M1267.5,-468C1267.5,-468 1201.5,-468 1201.5,-468 1195.5,-468 1189.5,-462 1189.5,-456 1189.5,-456 1189.5,-444 1189.5,-444 1189.5,-438 1195.5,-432 1201.5,-432 1201.5,-432 1267.5,-432 1267.5,-432 1273.5,-432 1279.5,-438 1279.5,-444 1279.5,-444 1279.5,-456 1279.5,-456 1279.5,-462 1273.5,-468 1267.5,-468"/>
<text text-anchor="middle" x="1234.5" y="-447.5" font-family="sans" font-size="10.00">samtools_view</text>
</g>
<!-- 23&#45;&gt;28 -->
<g id="edge53" class="edge">
<title>23&#45;&gt;28</title>
<path fill="none" stroke="grey" stroke-width="2" d="M938.51,-662.14C1006.42,-656.53 1140.29,-641.92 1175.5,-612 1215.39,-578.11 1228.31,-514.83 1232.5,-478.52"/>
<polygon fill="grey" stroke="grey" stroke-width="2" points="1236.02,-478.48 1233.54,-468.18 1229.06,-477.78 1236.02,-478.48"/>
</g>
<!-- 29 -->
<g id="node30" class="node">
<title>29</title>
<path fill="none" stroke="#d8bc56" stroke-width="2" d="M565.5,-468C565.5,-468 499.5,-468 499.5,-468 493.5,-468 487.5,-462 487.5,-456 487.5,-456 487.5,-444 487.5,-444 487.5,-438 493.5,-432 499.5,-432 499.5,-432 565.5,-432 565.5,-432 571.5,-432 577.5,-438 577.5,-444 577.5,-444 577.5,-456 577.5,-456 577.5,-462 571.5,-468 565.5,-468"/>
<text text-anchor="middle" x="532.5" y="-447.5" font-family="sans" font-size="10.00">samtools_view</text>
</g>
<!-- 23&#45;&gt;29 -->
<g id="edge55" class="edge">
<title>23&#45;&gt;29</title>
<path fill="none" stroke="grey" stroke-width="2" d="M858.26,-664.49C772.32,-662.61 574.56,-653.73 524.5,-612 486.73,-580.52 487.31,-551.37 500.5,-504 503.17,-494.42 508.09,-484.84 513.28,-476.51"/>
<polygon fill="grey" stroke="grey" stroke-width="2" points="516.3,-478.29 518.94,-468.03 510.48,-474.41 516.3,-478.29"/>
</g>
<!-- 30 -->
<g id="node31" class="node">
<title>30</title>
<path fill="none" stroke="#d8bc56" stroke-width="2" d="M915.5,-468C915.5,-468 849.5,-468 849.5,-468 843.5,-468 837.5,-462 837.5,-456 837.5,-456 837.5,-444 837.5,-444 837.5,-438 843.5,-432 849.5,-432 849.5,-432 915.5,-432 915.5,-432 921.5,-432 927.5,-438 927.5,-444 927.5,-444 927.5,-456 927.5,-456 927.5,-462 921.5,-468 915.5,-468"/>
<text text-anchor="middle" x="882.5" y="-447.5" font-family="sans" font-size="10.00">samtools_view</text>
</g>
<!-- 23&#45;&gt;30 -->
<g id="edge57" class="edge">
<title>23&#45;&gt;30</title>
<path fill="none" stroke="grey" stroke-width="2" d="M899.18,-648C900.1,-618.54 900.99,-556.16 894.5,-504 893.44,-495.44 891.6,-486.24 889.68,-477.94"/>
<polygon fill="grey" stroke="grey" stroke-width="2" points="893.04,-476.92 887.26,-468.03 886.24,-478.58 893.04,-476.92"/>
</g>
<!-- 23&#45;&gt;31 -->
<g id="edge58" class="edge">
<title>23&#45;&gt;31</title>
<path fill="none" stroke="grey" stroke-width="2" d="M938.62,-659.38C972.06,-652.91 1019.27,-639.41 1051.5,-612 1070.74,-595.63 1083.52,-569.54 1091.02,-549.83"/>
<polygon fill="grey" stroke="grey" stroke-width="2" points="1094.4,-550.78 1094.47,-540.19 1087.8,-548.43 1094.4,-550.78"/>
</g>
<!-- 23&#45;&gt;32 -->
<g id="edge61" class="edge">
<title>23&#45;&gt;32</title>
<path fill="none" stroke="grey" stroke-width="2" d="M858.38,-665.36C773.35,-665.18 579.48,-659.45 538.5,-612 524.03,-595.24 527.29,-569.42 532.99,-549.9"/>
<polygon fill="grey" stroke="grey" stroke-width="2" points="536.33,-550.94 536.11,-540.34 529.68,-548.76 536.33,-550.94"/>
</g>
<!-- 23&#45;&gt;33 -->
<g id="edge64" class="edge">
<title>23&#45;&gt;33</title>
<path fill="none" stroke="grey" stroke-width="2" d="M892.83,-647.87C884.79,-623.56 869.98,-578.82 860.44,-550.01"/>
<polygon fill="grey" stroke="grey" stroke-width="2" points="863.65,-548.58 857.19,-540.19 857.01,-550.78 863.65,-548.58"/>
</g>
<!-- 24&#45;&gt;15 -->
<g id="edge25" class="edge">
<title>24&#45;&gt;15</title>
<path fill="none" stroke="grey" stroke-width="2" d="M845.2,-575.99C860.52,-566.31 879.29,-553.45 894.5,-540 999.07,-447.49 1101.91,-315.2 1142.91,-260.33"/>
<polygon fill="grey" stroke="grey" stroke-width="2" points="1145.79,-262.33 1148.95,-252.21 1140.17,-258.15 1145.79,-262.33"/>
</g>
<!-- 24&#45;&gt;16 -->
<g id="edge29" class="edge">
<title>24&#45;&gt;16</title>
<path fill="none" stroke="grey" stroke-width="2" d="M807.62,-575.78C785.18,-533.77 722.31,-424.7 642.5,-360 617.75,-339.93 601.61,-347.87 580.5,-324 564.82,-306.27 554.89,-281.09 549.13,-262.04"/>
<polygon fill="grey" stroke="grey" stroke-width="2" points="552.43,-260.85 546.35,-252.17 545.69,-262.75 552.43,-260.85"/>
</g>
<!-- 24&#45;&gt;17 -->
<g id="edge33" class="edge">
<title>24&#45;&gt;17</title>
<path fill="none" stroke="grey" stroke-width="2" d="M810.63,-575.74C802.16,-549.25 787.5,-496.79 787.5,-451 787.5,-451 787.5,-451 787.5,-377 787.5,-336.7 796.64,-290.78 803.4,-262.34"/>
<polygon fill="grey" stroke="grey" stroke-width="2" points="806.87,-262.89 805.85,-252.34 800.07,-261.22 806.87,-262.89"/>
</g>
<!-- 24&#45;&gt;31 -->
<g id="edge60" class="edge">
<title>24&#45;&gt;31</title>
<path fill="none" stroke="grey" stroke-width="2" d="M851.07,-586.54C897.19,-577.62 981.18,-560.3 1051.5,-540 1052.91,-539.59 1054.33,-539.17 1055.77,-538.73"/>
<polygon fill="grey" stroke="grey" stroke-width="2" points="1056.86,-542.05 1065.31,-535.66 1054.72,-535.39 1056.86,-542.05"/>
</g>
<!-- 24&#45;&gt;32 -->
<g id="edge63" class="edge">
<title>24&#45;&gt;32</title>
<path fill="none" stroke="grey" stroke-width="2" d="M781.59,-579C778.54,-577.93 775.47,-576.91 772.5,-576 709.22,-556.56 634.18,-540.47 587.69,-531.3"/>
<polygon fill="grey" stroke="grey" stroke-width="2" points="588.14,-527.82 577.65,-529.34 586.8,-534.69 588.14,-527.82"/>
</g>
<!-- 24&#45;&gt;33 -->
<g id="edge66" class="edge">
<title>24&#45;&gt;33</title>
<path fill="none" stroke="grey" stroke-width="2" d="M825.15,-575.7C829.14,-567.73 833.95,-558.1 838.37,-549.26"/>
<polygon fill="grey" stroke="grey" stroke-width="2" points="841.61,-550.61 842.95,-540.1 835.35,-547.48 841.61,-550.61"/>
</g>
<!-- 25&#45;&gt;15 -->
<g id="edge26" class="edge">
<title>25&#45;&gt;15</title>
<path fill="none" stroke="grey" stroke-width="2" d="M1375.23,-292.32C1326.51,-279.26 1251.23,-259.06 1204.24,-246.46"/>
<polygon fill="grey" stroke="grey" stroke-width="2" points="1204.94,-243.03 1194.37,-243.82 1203.12,-249.79 1204.94,-243.03"/>
</g>
<!-- 25&#45;&gt;18 -->
<g id="edge39" class="edge">
<title>25&#45;&gt;18</title>
<path fill="none" stroke="grey" stroke-width="2" d="M1439.31,-287.7C1447.63,-279.14 1457.81,-268.66 1466.89,-259.3"/>
<polygon fill="grey" stroke="grey" stroke-width="2" points="1469.43,-261.72 1473.88,-252.1 1464.41,-256.84 1469.43,-261.72"/>
</g>
<!-- 25&#45;&gt;19 -->
<g id="edge44" class="edge">
<title>25&#45;&gt;19</title>
<path fill="none" stroke="grey" stroke-width="2" d="M1403.96,-287.7C1394.7,-279.05 1383.34,-268.45 1373.24,-259.03"/>
<polygon fill="grey" stroke="grey" stroke-width="2" points="1375.52,-256.37 1365.83,-252.1 1370.75,-261.49 1375.52,-256.37"/>
</g>
<!-- 26&#45;&gt;16 -->
<g id="edge30" class="edge">
<title>26&#45;&gt;16</title>
<path fill="none" stroke="grey" stroke-width="2" d="M613.26,-287.7C601.31,-278.8 586.58,-267.82 573.65,-258.2"/>
<polygon fill="grey" stroke="grey" stroke-width="2" points="575.58,-255.27 565.47,-252.1 571.4,-260.88 575.58,-255.27"/>
</g>
<!-- 26&#45;&gt;19 -->
<g id="edge43" class="edge">
<title>26&#45;&gt;19</title>
<path fill="none" stroke="grey" stroke-width="2" d="M683.87,-300.94C781.13,-292.52 1010.37,-272.26 1202.5,-252 1234.6,-248.62 1270.65,-244.39 1298.77,-241"/>
<polygon fill="grey" stroke="grey" stroke-width="2" points="1299.25,-244.47 1308.75,-239.79 1298.41,-237.52 1299.25,-244.47"/>
</g>
<!-- 27&#45;&gt;17 -->
<g id="edge34" class="edge">
<title>27&#45;&gt;17</title>
<path fill="none" stroke="grey" stroke-width="2" d="M878.25,-287.7C866.92,-278.88 852.97,-268.03 840.68,-258.47"/>
<polygon fill="grey" stroke="grey" stroke-width="2" points="842.53,-255.48 832.49,-252.1 838.24,-261.01 842.53,-255.48"/>
</g>
<!-- 27&#45;&gt;18 -->
<g id="edge38" class="edge">
<title>27&#45;&gt;18</title>
<path fill="none" stroke="grey" stroke-width="2" d="M947.68,-289.91C950.65,-289.2 953.61,-288.55 956.5,-288 1148.81,-251.36 1201.37,-277.27 1395.5,-252 1410.62,-250.03 1426.99,-247.31 1441.82,-244.63"/>
<polygon fill="grey" stroke="grey" stroke-width="2" points="1442.61,-248.04 1451.8,-242.79 1441.33,-241.16 1442.61,-248.04"/>
</g>
<!-- 28&#45;&gt;20 -->
<g id="edge45" class="edge">
<title>28&#45;&gt;20</title>
<path fill="none" stroke="grey" stroke-width="2" d="M1253.29,-431.7C1262.67,-423.05 1274.18,-412.45 1284.41,-403.03"/>
<polygon fill="grey" stroke="grey" stroke-width="2" points="1286.95,-405.45 1291.93,-396.1 1282.2,-400.3 1286.95,-405.45"/>
</g>
<!-- 29&#45;&gt;21 -->
<g id="edge46" class="edge">
<title>29&#45;&gt;21</title>
<path fill="none" stroke="grey" stroke-width="2" d="M546.84,-431.7C553.79,-423.3 562.27,-413.07 569.9,-403.86"/>
<polygon fill="grey" stroke="grey" stroke-width="2" points="572.64,-406.04 576.33,-396.1 567.25,-401.57 572.64,-406.04"/>
</g>
<!-- 30&#45;&gt;22 -->
<g id="edge47" class="edge">
<title>30&#45;&gt;22</title>
<path fill="none" stroke="grey" stroke-width="2" d="M886.95,-431.7C888.95,-423.9 891.37,-414.51 893.6,-405.83"/>
<polygon fill="grey" stroke="grey" stroke-width="2" points="897,-406.66 896.1,-396.1 890.22,-404.92 897,-406.66"/>
</g>
<!-- 31&#45;&gt;28 -->
<g id="edge52" class="edge">
<title>31&#45;&gt;28</title>
<path fill="none" stroke="grey" stroke-width="2" d="M1132.52,-503.88C1150.58,-494.51 1173.15,-482.81 1192.45,-472.8"/>
<polygon fill="grey" stroke="grey" stroke-width="2" points="1194.08,-475.9 1201.35,-468.19 1190.86,-469.69 1194.08,-475.9"/>
</g>
<!-- 32&#45;&gt;29 -->
<g id="edge54" class="edge">
<title>32&#45;&gt;29</title>
<path fill="none" stroke="grey" stroke-width="2" d="M540.78,-503.7C539.57,-495.98 538.11,-486.71 536.76,-478.11"/>
<polygon fill="grey" stroke="grey" stroke-width="2" points="540.2,-477.44 535.19,-468.1 533.28,-478.53 540.2,-477.44"/>
</g>
<!-- 33&#45;&gt;30 -->
<g id="edge56" class="edge">
<title>33&#45;&gt;30</title>
<path fill="none" stroke="grey" stroke-width="2" d="M859.16,-503.7C862.69,-495.73 866.96,-486.1 870.87,-477.26"/>
<polygon fill="grey" stroke="grey" stroke-width="2" points="874.08,-478.67 874.93,-468.1 867.68,-475.83 874.08,-478.67"/>
</g>
</g>
</svg>
